<svg xmlns="http://www.w3.org/2000/svg" viewBox="0 0 508.2 309"><defs><style>.cls-1{fill:#fff;}.cls-2{fill:#3d3b6e;}.cls-3{fill:#b12335;}</style></defs><title>Asset 2</title><g id="Layer_2" data-name="Layer 2"><g id="Layer_1-2" data-name="Layer 1"><g id="usa"><rect class="cls-1" width="508.1" height="309"/><rect class="cls-2" width="202.7" height="166"/><rect class="cls-3" x="202.7" width="305.5" height="23.5"/><rect class="cls-3" x="202.7" y="47.7" width="305.5" height="23.5"/><rect class="cls-3" x="202.7" y="95.4" width="305.5" height="23.5"/><rect class="cls-3" x="202.7" y="142.7" width="305.5" height="23.3"/><rect class="cls-3" y="237.7" width="508.1" height="23.6"/><rect class="cls-3" y="190.9" width="508.1" height="23.5"/><rect class="cls-3" y="285.4" width="508.1" height="23.5"/><g id="_1_row" data-name=" 1 row"><polygon class="cls-1" points="16 21.3 11.2 17.7 6.5 21.5 8.1 15.1 3.5 11 8.9 11 11.1 4.4 13.2 10.9 19.1 10.9 14.4 15 16 21.3"/><polygon class="cls-1" points="38.7 21.3 34 17.7 29.2 21.5 30.8 15.1 26.3 11 31.6 11 33.8 4.4 35.9 10.9 41.8 10.9 37.2 15 38.7 21.3"/><polygon class="cls-1" points="61.3 21.3 56.5 17.7 51.8 21.5 53.4 15.1 48.9 11 54.2 11 56.4 4.4 58.5 10.9 64.4 10.9 59.7 15 61.3 21.3"/><polygon class="cls-1" points="83.8 21.3 79.1 17.7 74.3 21.5 75.9 15.1 71.4 11 76.7 11 78.9 4.4 81 10.9 86.9 10.9 82.3 15 83.8 21.3"/><polygon class="cls-1" points="106.3 21.3 101.6 17.7 96.8 21.5 98.4 15.1 93.9 11 99.2 11 101.4 4.4 103.5 10.9 109.4 10.9 104.8 15 106.3 21.3"/><polygon class="cls-1" points="129 21.3 124.2 17.7 119.5 21.5 121.1 15.1 116.5 11 121.9 11 124.1 4.4 126.2 10.9 132.1 10.9 127.4 15 129 21.3"/><polygon class="cls-1" points="151.4 21.3 146.7 17.7 141.9 21.5 143.5 15.1 139 11 144.3 11 146.5 4.4 148.6 10.9 154.5 10.9 149.9 15 151.4 21.3"/><polygon class="cls-1" points="173.9 21.3 169.2 17.7 164.4 21.5 166 15.1 161.5 11 166.8 11 169 4.4 171.1 10.9 177 10.9 172.4 15 173.9 21.3"/><polygon class="cls-1" points="196.7 21.3 191.9 17.7 187.2 21.5 188.8 15.1 184.2 11 189.6 11 191.8 4.4 193.9 10.9 199.8 10.9 195.1 15 196.7 21.3"/></g><g id="_2_row" data-name=" 2 row"><polygon class="cls-1" points="27.3 49.1 22.5 45.5 17.8 49.3 19.4 42.9 14.8 38.8 20.2 38.8 22.4 32.2 24.5 38.7 30.4 38.7 25.7 42.8 27.3 49.1"/><polygon class="cls-1" points="50 49.1 45.2 45.5 40.5 49.3 42.1 42.9 37.6 38.8 42.9 38.8 45.1 32.2 47.2 38.7 53.1 38.7 48.4 42.8 50 49.1"/><polygon class="cls-1" points="72.6 49.1 67.8 45.5 63.1 49.3 64.7 42.9 60.1 38.8 65.5 38.8 67.7 32.2 69.8 38.7 75.7 38.7 71 42.8 72.6 49.1"/><polygon class="cls-1" points="95.1 49.1 90.3 45.5 85.6 49.3 87.2 42.9 82.7 38.8 88 38.8 90.2 32.2 92.3 38.7 98.2 38.7 93.5 42.8 95.1 49.1"/><polygon class="cls-1" points="117.6 49.1 112.9 45.5 108.1 49.3 109.7 42.9 105.2 38.8 110.5 38.8 112.7 32.2 114.8 38.7 120.7 38.7 116.1 42.8 117.6 49.1"/><polygon class="cls-1" points="140.3 49.1 135.5 45.5 130.8 49.3 132.4 42.9 127.8 38.8 133.2 38.8 135.4 32.2 137.5 38.7 143.3 38.7 138.7 42.8 140.3 49.1"/><polygon class="cls-1" points="162.7 49.1 158 45.5 153.2 49.3 154.8 42.9 150.3 38.8 155.6 38.8 157.8 32.2 159.9 38.7 165.8 38.7 161.2 42.8 162.7 49.1"/><polygon class="cls-1" points="185.2 49.1 180.4 45.5 175.7 49.3 177.3 42.9 172.8 38.8 178.1 38.8 180.3 32.2 182.4 38.7 188.3 38.7 183.6 42.8 185.2 49.1"/></g><g id="_3_row" data-name=" 3 row"><polygon class="cls-1" points="16 76.2 11.2 72.6 6.5 76.4 8.1 70 3.5 65.8 8.9 65.9 11.1 59.2 13.2 65.8 19.1 65.8 14.4 69.9 16 76.2"/><polygon class="cls-1" points="38.7 76.2 34 72.6 29.2 76.4 30.8 70 26.3 65.8 31.6 65.9 33.8 59.2 35.9 65.8 41.8 65.8 37.2 69.9 38.7 76.2"/><polygon class="cls-1" points="61.3 76.2 56.5 72.6 51.8 76.4 53.4 70 48.9 65.8 54.2 65.9 56.4 59.2 58.5 65.8 64.4 65.8 59.7 69.9 61.3 76.2"/><polygon class="cls-1" points="83.8 76.2 79.1 72.6 74.3 76.4 75.9 70 71.4 65.8 76.7 65.9 78.9 59.2 81 65.8 86.9 65.8 82.3 69.9 83.8 76.2"/><polygon class="cls-1" points="106.3 76.2 101.6 72.6 96.8 76.4 98.4 70 93.9 65.8 99.2 65.9 101.4 59.2 103.5 65.8 109.4 65.8 104.8 69.9 106.3 76.2"/><polygon class="cls-1" points="129 76.2 124.2 72.6 119.5 76.4 121.1 70 116.5 65.8 121.9 65.9 124.1 59.2 126.2 65.8 132.1 65.8 127.4 69.9 129 76.2"/><polygon class="cls-1" points="151.4 76.2 146.7 72.6 141.9 76.4 143.5 70 139 65.8 144.3 65.9 146.5 59.2 148.6 65.8 154.5 65.8 149.9 69.9 151.4 76.2"/><polygon class="cls-1" points="173.9 76.2 169.2 72.6 164.4 76.4 166 70 161.5 65.8 166.8 65.9 169 59.2 171.1 65.8 177 65.8 172.4 69.9 173.9 76.2"/><polygon class="cls-1" points="196.7 76.2 191.9 72.6 187.2 76.4 188.8 70 184.2 65.8 189.6 65.9 191.8 59.2 193.9 65.8 199.8 65.8 195.1 69.9 196.7 76.2"/></g><g id="_4_row" data-name=" 4 row"><polygon class="cls-1" points="27.3 104.3 22.5 100.7 17.8 104.5 19.4 98.1 14.8 94 20.2 94 22.4 87.4 24.5 94 30.4 93.9 25.7 98 27.3 104.3"/><polygon class="cls-1" points="50 104.3 45.2 100.7 40.5 104.5 42.1 98.1 37.6 94 42.9 94 45.1 87.4 47.2 94 53.1 93.9 48.4 98 50 104.3"/><polygon class="cls-1" points="72.6 104.3 67.8 100.7 63.1 104.5 64.7 98.1 60.1 94 65.5 94 67.7 87.4 69.8 94 75.7 93.9 71 98 72.6 104.3"/><polygon class="cls-1" points="95.1 104.3 90.3 100.7 85.6 104.5 87.2 98.1 82.7 94 88 94 90.2 87.4 92.3 94 98.2 93.9 93.5 98 95.1 104.3"/><polygon class="cls-1" points="117.6 104.3 112.9 100.7 108.1 104.5 109.7 98.1 105.2 94 110.5 94 112.7 87.4 114.8 94 120.7 93.9 116.1 98 117.6 104.3"/><polygon class="cls-1" points="140.3 104.3 135.5 100.7 130.8 104.5 132.4 98.1 127.8 94 133.2 94 135.4 87.4 137.5 94 143.3 93.9 138.7 98 140.3 104.3"/><polygon class="cls-1" points="162.7 104.3 158 100.7 153.2 104.5 154.8 98.1 150.3 94 155.6 94 157.8 87.4 159.9 94 165.8 93.9 161.2 98 162.7 104.3"/><polygon class="cls-1" points="185.2 104.3 180.4 100.7 175.7 104.5 177.3 98.1 172.8 94 178.1 94 180.3 87.4 182.4 94 188.3 93.9 183.6 98 185.2 104.3"/></g><g id="_5_row" data-name=" 5 row"><polygon class="cls-1" points="16 131.9 11.2 128.3 6.5 132.2 8.1 125.7 3.5 121.6 8.9 121.6 11.1 115 13.2 121.6 19.1 121.5 14.4 125.6 16 131.9"/><polygon class="cls-1" points="38.7 131.9 34 128.3 29.2 132.2 30.8 125.7 26.3 121.6 31.6 121.6 33.8 115 35.9 121.6 41.8 121.5 37.2 125.6 38.7 131.9"/><polygon class="cls-1" points="61.3 131.9 56.5 128.3 51.8 132.2 53.4 125.7 48.9 121.6 54.2 121.6 56.4 115 58.5 121.6 64.4 121.5 59.7 125.6 61.3 131.9"/><polygon class="cls-1" points="83.8 131.9 79.1 128.3 74.3 132.2 75.9 125.7 71.4 121.6 76.7 121.6 78.9 115 81 121.6 86.9 121.5 82.3 125.6 83.8 131.9"/><polygon class="cls-1" points="106.3 131.9 101.6 128.3 96.8 132.2 98.4 125.7 93.9 121.6 99.2 121.6 101.4 115 103.5 121.6 109.4 121.5 104.8 125.6 106.3 131.9"/><polygon class="cls-1" points="129 131.9 124.2 128.3 119.5 132.2 121.1 125.7 116.5 121.6 121.9 121.6 124.1 115 126.2 121.6 132.1 121.5 127.4 125.6 129 131.9"/><polygon class="cls-1" points="151.4 131.9 146.7 128.3 141.9 132.2 143.5 125.7 139 121.6 144.3 121.6 146.5 115 148.6 121.6 154.5 121.5 149.9 125.6 151.4 131.9"/><polygon class="cls-1" points="173.9 131.9 169.2 128.3 164.4 132.2 166 125.7 161.5 121.6 166.8 121.6 169 115 171.1 121.6 177 121.5 172.4 125.6 173.9 131.9"/><polygon class="cls-1" points="196.7 131.9 191.9 128.3 187.2 132.2 188.8 125.7 184.2 121.6 189.6 121.6 191.8 115 193.9 121.6 199.8 121.5 195.1 125.6 196.7 131.9"/></g><g id="_6_row" data-name=" 6 row"><polygon class="cls-1" points="27.3 159.5 22.5 155.9 17.8 159.8 19.4 153.3 14.8 149.2 20.2 149.2 22.4 142.6 24.5 149.2 30.4 149.1 25.7 153.2 27.3 159.5"/><polygon class="cls-1" points="50 159.5 45.2 155.9 40.5 159.8 42.1 153.3 37.6 149.2 42.9 149.2 45.1 142.6 47.2 149.2 53.1 149.1 48.4 153.2 50 159.5"/><polygon class="cls-1" points="72.6 159.5 67.8 155.9 63.1 159.8 64.7 153.3 60.1 149.2 65.5 149.2 67.7 142.6 69.8 149.2 75.7 149.1 71 153.2 72.6 159.5"/><polygon class="cls-1" points="95.1 159.5 90.3 155.9 85.6 159.8 87.2 153.3 82.7 149.2 88 149.2 90.2 142.6 92.3 149.2 98.2 149.1 93.5 153.2 95.1 159.5"/><polygon class="cls-1" points="117.6 159.5 112.9 155.9 108.1 159.8 109.7 153.3 105.2 149.2 110.5 149.2 112.7 142.6 114.8 149.2 120.7 149.1 116.1 153.2 117.6 159.5"/><polygon class="cls-1" points="140.3 159.5 135.5 155.9 130.8 159.8 132.4 153.3 127.8 149.2 133.2 149.2 135.4 142.6 137.5 149.2 143.3 149.1 138.7 153.2 140.3 159.5"/><polygon class="cls-1" points="162.7 159.5 158 155.9 153.2 159.8 154.8 153.3 150.3 149.2 155.6 149.2 157.8 142.6 159.9 149.2 165.8 149.1 161.2 153.2 162.7 159.5"/><polygon class="cls-1" points="185.2 159.5 180.4 155.9 175.7 159.8 177.3 153.3 172.8 149.2 178.1 149.2 180.3 142.6 182.4 149.2 188.3 149.1 183.6 153.2 185.2 159.5"/></g></g></g></g></svg>