<svg xmlns="http://www.w3.org/2000/svg" viewBox="0 0 2112.93 1384.48"><defs><style>.cls-1{fill:#28a0dc;}.cls-2{fill:#28770b;}.cls-3{fill:#efd5ba;stroke:#9e500a;}.cls-13,.cls-15,.cls-16,.cls-18,.cls-3{stroke-miterlimit:10;}.cls-4{fill:#9e500a;}.cls-5{fill:#fbdac3;}.cls-18,.cls-6{fill:#9b1c23;}.cls-7{fill:#56373c;}.cls-8{fill:#564e4c;}.cls-9{fill:#2db5ea;}.cls-10{fill:#f29870;}.cls-11{fill:#e9a98f;}.cls-12{fill:#faecc0;}.cls-13,.cls-15{fill:#f7e600;stroke-width:0.5px;}.cls-13{stroke:#000;}.cls-14,.cls-16{fill:#fff;}.cls-15,.cls-16{stroke:#fff;}.cls-17{fill:none;stroke:#9b1c23;stroke-width:20px;}.cls-18{stroke:#fbdac3;stroke-width:3px;}</style></defs><title>Asset 1</title><g id="Layer_2" data-name="Layer 2"><g id="Layer_2-2" data-name="Layer 2"><g id="vg"><rect class="cls-1" width="2112.93" height="1384.48"/></g><g id="Layer_1-2" data-name="Layer 1-2"><g id="Layer_19" data-name="Layer 19"><path class="cls-2" d="M202.19,118.71l-35.51,13.46-18.36,6.12H132.4l-4.08,5.18v7l3,4.05-1.11,3.69-5.53,3.31-8.85-2.94h-13l-4.79,1.1-2.21,5.9v6.26h12.9l-.37,3.32-5.89,3H95.87L90,180l-6.3,1.8H77.8l-5.16,4.06L66,189.18l-4.42,2.58-5.53,4.42L54.2,201v5.9l2.22,4.79-2.22,5.89-2.58,3.32H67.85l.73,4.79-5.16,3.69-5.9,3-5.9,2.21-5.16,2.21-4.79,1.84-4.43,3.69L34.66,247l10-2.58L55,242.21l9.22-3.69,5.53-3.31,5.9-2.58,6.27-1.11,3.68-4.42,5.9-5.53,4.06-3,4.79-2.58,4.8-2.58,4-4.42,5.53-1.85,6.64-1.84-7,7-2.58,4.06,4.06.37,7.37-1.48,3.69-1.84,5.16-2.58,3.69-3.69,2.58-3.31h4.06l5.16,3.31,1.84,4.06h3.32l6.27-.37,3.69.37,4.79,6.26,3.69,3.69v3.69l5.16,1.47,7.74-1.47,2.21-3.69,4.43-2.58v9.21l-1.84,3.69-1.11,10.32V247l-5.16,3-3.69,9.21.74,4.06,3,4.79-.37,4.79-1.85,4.42-2.21,4.05-.73,4.06,4,5.53,5.16,2.58,1.11,7.37-.74,7.37-4.05,3.68-5.9,1.85-5.17,7.37L170,325.54l-2.21,8.85-3,4.42-5.16,4.05-7.75,9.59L149,360.92l-1.84,9.22-3.32,6.63L143.1,383v8.47l.37,3.69,3.69,2.58-3.32,4.42-.37,8.11.74,8.48L146,422.1l1.48,6.27h5.16L156,433.9l2.58,8.47L160,454.54l1.47,12.16,1.48,5.53,4.42,6.26,1.47,4.79L167,488.07l.74,4.43,5.53,4.42,3.69,6.27,1.84,7.73,4.42,9.22,5.9,4.05,4.43-3-.37-6.63-6.27-12.16-6.27-16.59-4.79-9.21-1.47-10.32.73-6.27.74-4.05,3.69.37,3.68,4.42,2.59,8.11,1.1,10.69,3.69,9.95,6.27,10.69,5.29,7,3.93,8.84,5.53,8.11,3.31,4.43v22.11l3.69,4.42,6.64,5.16,11.06,8.11,10.32,6.27,6.64,5.15,7,1.85h7l6.27-2.21,6.64.36,4.79,1.85,5.16,6.63,6.64,7s8.48,9.59,15.12,8.85l5.53,3h4.79l2.21,10,2.59,6.63,4.05,6.64,7.38,2.21,3.68,3.68v4.06l2.95,4H354l7.38,1.84,1.84,3.32,3.69,3,4.42-2.58v-5.16l3.69-3.32,4.05,1.85L382,648l4.06,4.42v25.06l-8.48,13.64L373.14,700l-6.26,8.11-2.58,5.53-2.59,4,1.11,8.85,4.43,2.84.73,4.9-3.68,4-4.43,3L361.35,759l4.79,4.06,7.37,7.74,4.06,4,2.58,9.21,5.9,10.32,2.21,9.22,4.06,8.48,3.69,8.84,2.21,5.9s19.54,13.27,20.65,14.37,11.8,5.53,11.8,5.53l3.68,3,2.58,5.16v36.85l3.69,2.21v23.59l1.48,17V958.8l4.42,4.79v4.06s-.37,17,0,18.06-2.58,11-2.58,11l-1.11,20.64,3.72,2.95,2.18,4.79,1.85,3.69-1.48,11.79,1.48,6.63H460.9v19.17l3.32,1.84v5.53h3.32l-1.85,11.43H460.9l-2.21,6.26h6.63l2.22,6.27,4.42,1.84V1104l-1.84,7.37,7,11.8,4.8,6.63,2.58,3.69,2.21,9.21h19.91l4.79-7s-1.47-4.79-1.84-6.27S507,1117.2,507,1117.2l4.42-3v-8.11l4.06-3v-4l-2.21-5.9-8.48-5.52-1.48-4.8,3.32-4.79,4.79-2.21.37-11.42,3.69-3.69,4.43.37v-5.9l-8.12-3.68-4.79-.74-1.11-6.27,10,.74,6.64-2.58V1038l-2.22-5.9-1.1-4.42H528l10-1.47,5.9-5.9,3.32-6.27v-11.42l-12.9-12.53h18.8s6.64-1.48,7-2.58,6.26-8.11,6.26-8.11l2.22-13.27,2.58-8.11,5.16-3.31,4.06-2.22,5.89-16.21,3-17.69,6.64-10,4.79-5.9,7.38-5.53,8.11-3.32,8.11-1.84,7.75-1.1,5.53-14.75,4.71-16.2L649,846V817.56l5.16-2.21,3.69-5.89v-7l20.28-19.53V763.75l-3-8.84-6.27-5.9-14-.74-8.12-11.42-8.11-3h-24l-7.38.37L605.07,724l-6.27-2.21-11.06-1.48-11.06.37-3.32,4.06-4.43,3-4.79-1.48,6.27-5.16,5.9-8.47-5.9-4.06-6.27,2.21-5.9,5.53,1.48-8.84,3.32-8.85-4-4.47-1.84-6.27-1.48-7-2.58-7-10.69-5.9-4.8-4.42L521,664.61l-4-1.84-7.38-7-2.21-8.11-6.27-5.16-4.42.37-4.8-7.37-4.05-9.59L469,624.81l-13.64.37-5.16-.37L438.78,613l-4.8.37-2.21,5.53-3.32,5.53.74,6.23-.37,3.72-5.53-.74L424,623l2.21-8.11-.37-3.32-8.48,3-7.74,3.68-5.9,5.16-6.27,7.34L396,636.6l-2.95,4.79-4.43-.73s-5.9-3.32-6.27-4.43-7.37-2.94-7.37-2.94l-3.69,1.84L361,637.34l-7.75.74-4.05-7.41L347,618.91l3.68-16.21.37-17.33-9.95-5.89-15.1,1.1-4.06-.37.37-17.32s4.43-5.53,5.16-6.63,5.53-8.85,5.53-8.85l4.43-8.47v-4.43H316l-4.79,3.32-3.69,7.37-1.84,7.37L304.19,557l-15.11.37-11.43-.73L274,547.41l-1.48-8.47-5.16-8.11,2.95-12.53,4.43-7.74L278,501l1.47-9.58,1.11-7,7.74-4.42,10.32-5.53,6.27-1.48,9.22-1.47,4.79,2.58,4.43,1.1,8.11-.73V466l9.22-1.47,9.95.37,5.72,2.21,5.34,5.16,8.85.37.37,21.37,4.43,7,2.58,5.16,8.85-.36-.37-46.44,1.84-9.59,2.95-4,8.48-4.05,15.12-11.43,11.43-12.9,5.16-5.53L430.67,400l4.79-1.47,7-8.48,4.06-8.11,3-7,7.37-2.95,8.12-1.47,8.11-1.85,4.79-5.53,2.58-8.47,4.43-4.79,2.58-5.16L503,344l5.53-5.16L514,336.6l5.53.37-10,10.68-2.21,4.06,11.43-.74,5.16-5.9L528.7,341l8.85-2.58,3-4.42-5.9-4.79-7.74-3.69L524,321.49l.74-5.16,6.64-5.16,2.58-3.32-4.8-4.42-7.37-.37L514,306.74l-18.07,10,19.54-18.43,6.27-5.9,40.19,1.11,16.22-10.32,9.22-10.69,7.38-5.16-3.32-7.74-7.38-1.47,4.06-5.16-11.43-7.38-.74-7,2.95-3.68V221.24l-7.37-14.37-4.06.36-5.16,4.43-4.43,7-5.9,2.58-8.11-.37-1.47-11.79,5.53-5.9,3-3.32L544.6,198l-5.53-5.16-1.11-7L512.89,187s-14.38,34.28-24,31.33l-2.21,21s-18.07,12.9-18.44,15.48a71.53,71.53,0,0,1-2.58,8.84l-4.79,9.59-4.42,7.37-7.75.37s-4.42-8.11-4.05-9.22,4.79-10.32,5.9-11.05,3.31-9.59,3.31-9.59L452,247.44,443.54,246l-6.27.37-9.95-11.05-9.59-4.8-4.42,1.11-1.11-12.16-3.69-2.58,4.8-8.48L432.51,194l16.59-8.11,5.16-7.37,11.06-1.85,10.33-4,3-5.9,1.1-3.31,8.12.37.73-3.32,25.08-1.84,17.7-22.49-6.64-5.52L517,135l-13,12.53-5.16,2.95L497.77,138l-9.58,2.21-.37-11.8,7.37-7.37,1.84-5.16h-8.84l-11.8,3.32-8.12,6.63L469,135l-6.27,3.31-5.16-8.47-8.11,4.42.37,4.42,5.9.74-.37,6.27-5.9-1.85-9.22.37-4.79,2.95-11.06-1.47-8.1-3.69-8.49-1.84L400.06,142l-7.37,7.74-4.43-1.84L365,143.84l-2.21-4.79-10.69-1.47-6.27-5.16-5.53-2.95-7.74,2.58L327,128.73l-1.85-3.31h-4.79L316.73,128l-4.05,4.05h-7l.74-6.63-14,.73-8.12,2.95-12.16,1.48-2.95,4.79-10.33-1.11-8.11-5.16-6.64-1.47-12.53-3.32-17-3.32Z"/><path class="cls-2" d="M360.63,115.83h8.05l9.05-2.67,4.7-5.37,7.71-3.35,7.71-3h10l-4,4s-10.39,4.35-11.73,5.69-7.88,6.71-7.88,6.71l-3.19,4.35a7.46,7.46,0,0,0,3.19,0c2.18-.33,11.56.15,11.56.15h5l.34,3.87H373l-4.36,3.35,2.68,4.7,7,2.34,3.35,2.68h11.4l7-3,7.71-2.35,8.38-1.67,5,4.35,7.71-.33,7.38-5,4-3.35,2.68-5.36,5.7-2.18,7.38-4.53,6-6,6.37-8.37,6.71-1.68,6.7-2.34L488.36,92l3.69-3.68L470.59,90l-25.47,3-2.35-7-14.08,1.34L419,99.75l-6.71-.33-1.34-6L393.82,92l-12.74,8.72-8.71,8-10.06.33Z"/><path class="cls-2" d="M470.26,108.13l1.68,7.7,7.37-3.18,6.37-4.52,5-3,1.34-3h6.37L495,106.82l3.35,5.86h6.37l3-6.53,19.78-1.34,4.69-7.37-8-2.69h-9.05l-6.37,2-20.78,1S476,109.49,470.26,108.13Z"/><polygon class="cls-2" points="425 78.97 433.05 81.66 439.75 78.97 446.79 74.95 455.17 73.61 467.58 72.27 467.58 68.25 442.43 68.25 439.42 71.94 431.04 74.95 425 78.97"/><polygon class="cls-2" points="446.29 81.66 451.49 78.31 457.86 78.31 465.57 78.31 467.58 81.66 474.28 83.33 478.98 78.31 486.02 74.95 489.37 74.95 489.37 81.66 485.35 86.01 446.29 86.01 446.29 81.66"/><path class="cls-2" d="M495.07,70.6h7.71l6-4.36h5.7l10.06-1.67v-5l-5.7-2.35s-5.7-.67-7.38,2l-1.67,2.69-4,2h-7.72l-3,1.71Z"/><path class="cls-2" d="M538.31,63.86l5,1.71s5.37,2,6.71,1.34,6.7-3,6.7-3l5.37-5.33V53.84l-9.06-3-7.37,3.68-7.38,6Z"/><polygon class="cls-2" points="565.13 63.86 570.5 58.94 576.2 54.85 577.54 59.35 577.54 67.05 567.48 67.05 565.13 63.86"/><polygon class="cls-2" points="546.7 81.66 550.22 77.64 550.22 70.6 556.75 72.94 560.77 80.48 562.12 87.35 550.22 91.37 543.34 89.03 546.7 81.66"/><polygon class="cls-2" points="515.52 122.87 526.25 115.83 529.93 114.16 532.28 119.86 538.31 118.52 554.74 101.76 566.81 98.75 571.34 101.09 567.82 105.28 563.46 110.81 571.34 108.8 574.52 105.28 584.24 105.28 584.24 112.65 586.59 115.83 594.97 115.83 594.97 122.87 603.35 125.89 603.35 131.92 596.98 136.28 596.98 141.3 603.35 147.34 613.74 153.7 616.09 157.39 605.7 164.43 597.32 164.43 592.96 159.73 587.93 158.06 582.9 164.43 582.9 170.12 587.93 170.12 585.92 180.17 579.21 183.19 569.83 180.51 565.8 180.17 569.49 186.54 571.34 190.9 562.12 190.9 550.22 181.18 543.34 172.13 543.34 166.1 550.22 164.43 554.74 159.4 560.11 155.71 565.13 157.72 565.8 160.74 575.86 160.07 574.18 154.04 565.8 153.7 565.13 139.29 557.42 139.29 556.08 122.54 552.73 123.21 550.22 128.23 535.63 127.23 534.96 130.58 529.26 130.91 528.26 126.22 516.86 127.23 515.52 122.87"/><path class="cls-2" d="M581,75h37.5l7.38-3v-5l8.71-1.81h14.09l3-1.38L659.41,61l4-6.1,4-4h22.8l4.7-3,7.71-2.68H712l9.73-6,7.37-3,16.43-2,9.73-2.68,1.67-6.7s-9.72-2-10.73-1.68-23.8-1.75-25.81,0S711.71,29,711.71,29l-22.46-1s-15.09-.67-16.1,0-8.72,4-8.72,4l-5,4.69L669,41.11l-1.84,3.68-24.48.34-10.06,12L626.25,59H616.09l-10,2-.67,6.1-16.77,1.2H581Z"/><path class="cls-2" d="M654.38,72.94v5.7l3.35,2.68h26.15l4.36-2v11.4l-4.36,8-5.8,8.38-1.24,8.7h9.72l-.33,5.71H675.16l.67,4.35,4,2.69,1.34,4.35-3.12,4.36-11,4-5.7,8.38-5,6.7.33,8.72.34,4.35,3.35,2,.34,5h-3.36l2,17.43,5.36,5.69H678l3.79,7h6.37l4-2.34,14.42-18.77,8.38-5.7s3.35-8,4.36-10a39.67,39.67,0,0,1,3-4.69l7-1,13.07-1.34,7.72-.67,6.7-4,4-1.34L771.05,148l4.7-1,12.74-.67,7.37-1.34,9.73-2.68,9-2.52,5-4.86,5.7-1,4.69-1.34,1.34-5.7-23.47.34-.33-6,6.7-.67.34-7.71,6.37,3,4.36,4.7,3.69,1.34,5,1.34,6.7-1v-6.38l-6.7-7.7-5.37-4,.34-7,5.36-.33h6.37l3.69,2.34,2.35,3.36,6-2,5.37-6,6.7-7L868,84V78l4.36-1.34,3.3-1.66V66.24L882,60.88l6.37-4.69,5-4.69,3-6.71h17.1l2.34-3.35,4.7-2.68v-4H893l-3,4-6.71,1.68-5.36,3H870.3s3.35-4.35,4.35-4,4-2.34,5.7-2.34,7.72-4.7,7.72-4.7l-25.49,1.68s-1.67-4.69,0-4.36,39.57,0,39.57,0L900.81,25h-4l.67-5h-48l-2.68,3.69L832.07,24l-4.35,3.68-8.05,5.7-5,4.69-6.37-1.34L807,26.34l-4.7.67-3,3-2.69,4-4.35,2.34-13.42,1s-1.67-4-3.35-3.69-21.79.67-21.79.67L749,38,737.9,40h-8.72s-1,1.34-4.36,2.68q-3.59,1.5-7,3.35l-4.69,2.49-1.34,3.88-5.37,3L673.9,57.09l-7,.34-2,5,.34,4.69L669,69.93Z"/><path class="cls-2" d="M818.15,164.67l2.84-4,6,4,3.4-2h21l2.84-2h9.64l6.25,6,1.41,5.39-6.8,1.42-8,1.7L849.64,178s-6.52,1.42-7.37,1.42-3.41,3.69-3.41,3.69h-9.08l-2.26-4.54-9.37.57v-2.56l-3.4-8.5Z"/><polygon class="cls-2" points="1021.92 54.01 1027.01 62.62 1034.84 62.62 1034.84 55.19 1032.49 49.71 1021.92 54.01"/><polygon class="cls-2" points="1041.49 59.1 1041.49 67.7 1047.75 73.57 1052.44 78.26 1054.01 68.68 1060.66 59.1 1057.53 53.62 1046.97 49.71 1041.49 59.1"/><polygon class="cls-2" points="1056.75 47.76 1065.36 52.84 1078.66 52.84 1086.09 52.84 1088.44 47.76 1085.7 42.67 1063.01 40.72 1051.07 40.72 1047.36 43.45 1056.75 47.76"/><polygon class="cls-2" points="1070.44 63.99 1067.9 69.27 1075.14 71.61 1084.14 71.61 1088.44 65.75 1075.92 62.62 1070.44 63.99"/><path class="cls-2" d="M985.15,188.94l11.34-5.84h11.35l8.51-9,7.14-2.18,7-11.2,16.83-11.65,9.39-4.69,6.65-10.17,10.17-3.13h6.26l4.7-3.13h9l11.74-5.08,3.52-4.7h6.65l3.52,3.91,15.26,2v6.26h11.35l4.3,2.74,12.91-.79,5.48,2.35,11,4.3,10.56,4.69,7,5.48v9l-5.87,5.08-16-.39-6.65-2h-3.52l-1.18,4.7,3.92,5.86,7,3.91,6.26,1.57,8.61-4.3,9.39-9.78,2.35-5.48,12.52-3.71,5.48-2.94,4.69,1.18,5.09,1.76,3.91-4.5s3.52-3.52,4.69-3.91,10.57-3.91,10.57-3.91l3.91-2.74,6.26-1.56h4.7l3.52,3.91h9.39l8.61-2,5.48-5.47,6.26-2.74,7.43-.39,9.78,1.56,10.17,3.52,5.48,2.74-11-20,2-11.34h13.31l8.21,3.13,7,10.56,3.13,3.91,3.91,2V135l5.48,5.87,5.47,2.73,2.74,9,2.35-9.78L1365,135l-13.3-21.12-2.35-7,10.56,1.57,11.74.78-2.35-4.69,2.35-5.87,24.65-20,5.48,2.74h16.82l5.87-.39v-13L1439,74l4.3,2.74h7.44l3.91-3.52,7-.78L1480,80.65,1493,85v15.64l5.09-5.08h9.78l6.65,2,5.48-.79,17.22.79,6.65,1.56,5.09,4.3h12.91V98.21l22.69.78,27,18,6.65,1.56v-4.69l12.13,1.57,15.65,2.73,4.31-.39-3.53-7.82,3.53-3.13,18.78,2,9.39,2.73,21.91-.78h9.39l13.3,7.82,18.78.4,7.44-2.74,14.47,6.65,3.13,7.43,15.26,1.56,1.57-3.32,11.74,1.76,6.26,1.95,12.52,2.35-1.57-6.06h42.26l28.56,14.27,12.91,2s55.17,27,55.56,28.94-26.21-2.35-26.21-2.35l-12.13-6.65-6.26-3.91-4.3,9,16,5.86,4.3,5.09,9.39,5.47.39,5.87h-10.56l-5.09,5.87-5.08,7,.78,4.3h-12.52l-9.39-4.69-2,23.85,15.26,9,2.74,6.65,2.74,9-.39,13.69-3.13,3.52,2,8.21,3.53,2.74-2,5.87-41.87-39.5-.39-47.72L1859.51,189l-1.44,14-3.52,1.57L1851,198.7l-14.48-.39.39,13.69,3.91,3.52.79,5.86-17.64,1.2-3.91-5.09-41.48.39-.39,8.22-3.52,4.69-2,10.56-3.13,5.87,2.74,8.6,4.7.78,4.3,3.91,3.91,1.18,2,3.52,4.3-4.31,6.66-1.56L1813,272.25l2,6.64,2,11.35,9,12.51,3.52,6.26L1826,318.4l-2,7.43-3.52,23.46-5.87,7-11.35-3.91-5.87,7.82-6.26,24.64,5.48,10.17,10.56,11.34,3.13,7.82-1.17,7-7.43,3.13-7.83,3.52-4.69-14.47-2.35-9.38-11-5.09-5.47-9.78-1.57-4.3-12.52-1.17-3.52,4.3-3.91,1.57-.79-8.22-2.74-5.47-3.52,4.3-2.74,4.69-4.69,2.35-1.57,4.3,5.48,3.91,2,5.48h22.3l-12.52,20.73,1.56,6.25,24.65,24.64-7.82,11L1767.3,467h11.34l-.78,22.3-9,5.47-1.17,21.12-6.66,2-5.86,6.64-.79,3.52L1743.82,532,1727,535.45l-7,2.74-.78,7.82,5.87,3.52-.78,9s-6.26,7-7.44,6.65l-9.39-2.74-.39-7,2-5.47,3.91-1.18.39-9-15.65.39-5.09,9.78-8.21,3.52-8.61,1.17.78,10.57,5.09,3.12.39,11,8.21,5.47,2.35,8.61-7.43,2.34-8.22,1.57-2,7.82,3.91,6.26,4.69,6.65,3.13,5.08h-5.87l-23.08-19.95.78,36.38,13.7,17.2,1.17,7.44-12.91-7.44-9.78-14.86-2.74-6.65-.78-55.92L1641,577l-5.86-5.47-3.92,5.86-1.56,5.48-11-1.18L1617.44,559l-8.22-9-9-5.48,2.35-20.34-4.3-2.73-10.18,9.38-12.91,5.09-7,2.34v9l-8.22,5.86-31.3,33.64-.78,33.63-4.7,3.91-7,12.52-4.3,1.56-22.7-44.58L1477,569.09l-2.35-38.33-6.06,1.17v8.61l-10,1.56-14.08-16.42-10.57-5.48-2.74-7.43-7.43-2.74-43-.78L1363.5,505l-5.5-11h-6.26l-12.52,2.34-12.53-7.43-12.12-3.12-5.87-16-10.18.39-1.17,5.09,15.26,21.11,7.82.4,4.31,16h17.61l4.69-8.21,4.7-.78,7,9.77,15.26,4.31,12.13,8.21-5.87,17.6-18.78,23.85-24.26,11.74-2,6.65-26.6,6.25L1275,604.69l-7.44-5.87L1252,562.05l-3.91-7.82-10.57-9.39-5.47-13.3-2-9.38-10.17-.78-.39-16.82L1202.3,480.7l-7-25.42,11.34-10.17-2-33.63h-7.44l-14.86.78-9-4.3-7.44,3.91-7.82-1.18-5.48,2.35-5.09-.39-9.78-9.39-8.22-10.16v-8.61l3.13-5.87,11.35-1.95,7.83-2,5.87-1.17,5.86-7.43,20-2,9.78-1.95,8.61,1.95,7.43,2h21.52l5.48-4.3-14.08-16-11.35-4.3s-6.26-3.13-6.26-5.48,5.08-9.38,5.08-9.38l.4-7-9-.39-4.7,3.52-4.69,2.74,3.91,4.69.39,6.26-9.39,3.91-7.43.39-3.13-9.78-1.18-6.26-7.43.39-6.65,3.52-8.22,5.09-2.35,7-3.52,10.95.78,6.65,2,5.47-3.13,5.48-13.7.78-13.3,2-7.43,4.3-3.13,4.3,8.21,9.78,5.09,3.91-2.74,7.43-5.48,7-11.34.78-3.13-5.47.39-9.78-9.39-9.78-7.44-6.65L1080.62,361l-25.83-15.26-.78,12.91s24.26,15.25,23.87,20.34l-.39,5.08-5.09-2.74s-2.74-3.13-3.52-1.95,1.17,14.08,1.17,14.08l-5.48,2.34-6.65,2-4.69-16.43-4.7-10.56-18.39-12.12-12.49-10.56-7.46-5.09-7.83,3.13-3.91,5.48L969.1,352l-1.56,11-4.31,5.08-5.47.79-4.7,1.56-7.82,6.65-3.13,12.12L930,406l-34.83,3.91s-5.08-5.08-6.26-5.08H874V390.75l-4.3-5.09,5.5-6.66,2.35-16-3.13-11,5.47-4.69,48.91.39,3.13-19.56-9.39-13.29-10.17-.4-1.57-7.82,3.53-3.52,12.52.39,1.95-7.43,8.22-.78,2.35,3.91H946l24.65-20.73,3.13-5.86,7-3.13,3.13-5.09,15.65-2.34,5.87-.39-1.17-5.09-2.74-12.12.78-7.82,9.78-1.57,5.51,2.74v7.43l-3.16.78,1.86,6.65,7.14,3.13.78,3.91,6.65-2.35,11.74.79,3.52,3.52s3.92-5.09,5.09-5.09,11-3.91,11-3.91l7.82-.78,8.22,4.69,6.26-4.69s6.26-2.35,5.87-3.91-1.18-15.25-1.18-15.25l5.09-5.09,8.22,3.13,4.69-1.56-.78-9.78.39-8.61-31.3.79-10.17,9-3.13,11.73-2,7.83-5.09,3.12L1045,244.87l-5.48,2.74H1027.4l.79-6.26,5.86-3.52-7-12.12-6.65-7.83-7,3.91-7.83,5.09-12.91,1.17L986.71,223Z"/><path class="cls-2" d="M903.76,260.51v10.17l-5.09,7.82-12.12,2-7.83-3.91,6.26-6.06.39-4.11-3.91-5.87,6.65-4.3h9l6.65-6.26a88.74,88.74,0,0,1,7.44,7.83Z"/><polygon class="cls-2" points="913.54 280.46 923.33 280.46 925.28 285.15 916.28 287.5 911.2 291.02 927.63 289.06 939.76 285.74 947.98 285.74 956.19 282.41 953.84 273.81 949.15 265.21 946.8 258.17 936.24 246.43 928.41 246.43 926.85 241.35 933.69 233.53 935.85 228.83 922.93 228.83 928.8 224.14 924.11 220.23 920.59 224.14 911.2 233.14 911.2 240.96 915.11 244.48 915.5 249.95 926.85 249.95 927.63 258.56 929.19 265.21 920.59 267.94 920.59 273.03 915.5 275.77 913.54 280.46"/><polygon class="cls-2" points="1003.23 362.73 1011.5 350.71 1011.5 366.11 1016.35 383.76 1009.79 388.27 1003.23 388.27 1003.23 362.73"/><path class="cls-2" d="M1017.65,429.58l15.64,11.26h13.52l32.32,18h10.52V444.22l15.78-3.38,15,3.38,23.29,8.64h40.58l8.26,26.29,19.54,43.56,6.76,9,3.76,23.28,13.53,9.77v18L1261,604.58l4.51,14.28,10.52,3,27.81-6,19.53-.75v21.78L1285.77,691l-46.59,54-3,15,7.51,7.51-3.76,6.76,4.51,13.52,6,6.76-3.75,40.56-30,18.89-8.27,7.51.75,37.56s-14.27,3-17.28,7.51-3.76,23.28-3.76,23.28l-13.52,20.28-4.07,15.78-38.76,14.27-38.33,8.26-17.28-12,2.25-11.27L1065.6,941.9l-11.27-14.27L1050.57,884l-15.78-23.29-.75-37.55,7.51-23.29-3-12.77L1034,765.32l-6.76-16.52L1011.5,736l-6.77-15-4.5-6.76-12.78,12-23.29,3.11,10.52-28.64L981.44,688l9,.75,1.5-15L977.66,670l-6.76-11.27h-27l-6.77,5.47,3,14.06h-9l-6.76-9H897.28l-18.79,5.26-18-6.76-27-19.53-7.52-15.77-22.54-22.54L808.61,570l1.5-36L826.64,501l3-7.51,6-9.76,24.8-15L865,446.85l18.78-14.27,12.78-15H919.1l37.12-8.26,16.23-4.51h17.29l20.08-3,7.86,2.25,8.88,4.51Z"/><polygon class="cls-2" points="1530.39 664.13 1542.53 653.24 1536.46 635.04 1525.33 643.13 1530.39 664.13"/><path class="cls-2" d="M1670,695.09l-17.2-20.6-19.23-10.36-7.08,8.33,21.76,15.18,8.6,17.19L1670,735.18l15.18,17.2,15.18,15.17,22.27,7.08,32.38,8.09s-2-22.25-22.26-26.3l-12.15,4.05-22.26-8.09,1-16.19,15.18-2-9.11-10.75h-14.67l-7.59-23.64Z"/><polygon class="cls-2" points="1719.63 702.81 1727.73 729.37 1747.97 737.2 1767.19 737.2 1767.19 723.42 1781.36 702.81 1775.29 678.53 1781.36 669.43 1776.3 649.58 1789.46 622.9 1778.33 622.9 1770.23 640.09 1765.17 664.13 1749.99 672.46 1735.82 690.67 1719.63 690.67 1719.63 702.81"/><path class="cls-2" d="M1782.37,737.2c1,5.06,7.09,17.2,7.09,17.2l6.07-31V712.93l23.28-5.06,10.12-12.78-23.28,7.72h-24.29Z"/><polygon class="cls-2" points="1875.48 737.2 1909.89 754.4 1915.96 767.55 1935.18 782.72 1944.29 772.61 1962.51 775.64 1967.57 787.78 1985.79 791.83 1971.62 770.58 1970.61 754.4 1961.5 754.4 1956.44 737.2 1910.9 723.42 1897.74 737.2 1875.48 737.2"/><polygon class="cls-2" points="1898.75 811.04 1889.65 826.22 1905.84 837.35 1916.97 847.46 1935.18 800.93 1945.31 813.07 1945.31 824.2 1956.44 824.2 1956.44 857.58 1967.57 867.69 1967.57 886.91 1979.71 891.97 1985.79 912.2 1981.74 938.5 1973.64 948.61 1969.59 961.76 1951.98 978.96 1930.63 1009.31 1915.96 1017.4 1901.79 1025.49 1897.74 1013.35 1889.65 1025.49 1875.48 1016.39 1875.48 998.18 1865.36 988.4 1870.42 968.85 1852.2 988.4 1845.12 975.93 1845.12 966.82 1819.82 963.79 1805.14 968.85 1789.46 969.86 1781.36 982 1755.05 977.95 1747.97 988.4 1733.8 988.4 1719.63 977.95 1731.78 965.81 1733.8 943.56 1724.69 918.27 1733.8 913.21 1732.79 886.91 1754.55 873.76 1777.32 866.68 1795.53 856.56 1797.56 843.41 1811.72 837.35 1814.76 823.18 1828.93 818.13 1840.06 823.18 1852.71 822.17 1852.71 807 1852.71 795.87 1875.48 798.91 1899.77 801.94 1898.75 811.04"/><polygon class="cls-2" points="1889.65 1037.63 1906.85 1041.68 1898.25 1056.85 1889.65 1063.93 1883.57 1050.78 1889.65 1037.63"/><polygon class="cls-2" points="1996.92 1091.24 2049.54 1046.73 2045.49 1037.63 2023.23 1056.85 2011.08 1068.99 1985.79 1075.06 1985.79 1086.18 1996.92 1091.24"/><polygon class="cls-2" points="2059.66 1044.71 2091.03 1016.39 2081.92 1011.33 2075.35 1000.2 2075.35 989.08 2066.74 989.08 2066.74 1016.89 2054.6 1025.49 2059.66 1044.71"/><polygon class="cls-2" points="1993.88 737.2 2005.01 747.32 2014.12 747.32 2004 729.37 1993.88 737.2"/><polygon class="cls-2" points="1868.39 715.96 1875.48 724.75 1885.6 729.37 1885.6 710.9 1868.39 715.96"/><polygon class="cls-2" points="1842.08 737.2 1864.35 738.34 1858.27 729.37 1842.08 737.2"/><polygon class="cls-2" points="1805.14 729.37 1812.73 715.96 1795.53 723.42 1795.53 738.34 1804.13 747.32 1805.14 729.37"/><polygon class="cls-2" points="1854.87 366.11 1849.34 356.9 1849.34 352.75 1854.87 348.95 1854.87 340.3 1854.87 335.46 1861.45 336.84 1867.33 342.03 1873.22 342.37 1878.06 342.37 1884.98 342.03 1888.1 340.64 1888.1 345.14 1888.1 348.95 1891.56 353.1 1885.67 354.83 1880.14 357.6 1878.41 363.82 1874.6 366.11 1870.45 362.09 1864.22 358.98 1864.91 364.17 1874.25 373.85 1881.18 384.23 1881.18 392.19 1879.45 397.03 1879.45 400.84 1881.87 406.37 1884.29 415.02 1883.94 424.01 1878.41 424.01 1872.18 421.59 1862.14 424.01 1861.1 429.89 1856.6 436.47 1849.34 435.08 1844.84 436.47 1841.38 442.69 1836.18 442.69 1833.42 447.19 1833.42 455.84 1825.11 455.84 1825.11 446.5 1818.88 441.66 1818.88 435.43 1824.42 426.44 1831.34 419.52 1837.92 414.67 1848.3 417.44 1848.3 410.87 1855.22 401.87 1867.33 390.8 1863.18 379.74 1854.87 366.11"/></g></g><g id="Layer_3" data-name="Layer 3"><polygon class="cls-3" points="1187.77 1307.27 888.84 1307.27 871.02 1155.94 1206.9 1155.94 1187.77 1307.27"/><rect class="cls-4" x="879.53" y="1307.27" width="318.84" height="39.04"/><rect class="cls-4" x="871.02" y="1097.85" width="335.88" height="42.84"/><path class="cls-5" d="M879.74,1080.33s80.58-55.4,160.69-54.55,158.14,54.55,158.14,54.55l-26.9,52.85-60.54,5.54H968.08l-61.44-5.54Z"/><path class="cls-6" d="M890.55,1084.41s74.84-53.22,149.25-52.4,146.88,52.4,146.88,52.4l-25,50.76-56.23,5.32H972.6l-57.06-5.32Z"/><path class="cls-7" d="M857.12,1135.72H1220.8l-4.94,25.44s-242.6-5.17-358.74,3.58Z"/><rect class="cls-8" x="998.7" y="1224.24" width="74.55" height="91.01"/><rect class="cls-9" x="1002.96" y="1229.02" width="66.72" height="81.45"/><rect class="cls-8" x="889.7" y="1177.95" width="88.51" height="55.58"/><rect class="cls-1" x="894.35" y="1181.73" width="79.38" height="48.03"/><rect class="cls-8" x="928.86" y="1181.73" width="5.1" height="48.03"/><path class="cls-5" d="M951.16,1125.93s85.83-63.26,172.75,0l-25.22,64.68s-65.45-9-122.32,0Z"/><path class="cls-10" d="M961,1128s76-56,153,0l-22.34,57.29s-58-8-108.35,0Z"/><g id="stairs"><polygon class="cls-11" points="973.22 1357.8 1093.38 1356.44 1093.38 1365.18 973.22 1365.18 973.22 1357.8"/><polygon class="cls-12" points="983.47 1353.43 973.22 1357.8 1093.38 1356.44 1082.85 1352.65 983.47 1353.43"/><rect class="cls-12" x="986.43" y="1327.43" width="88.22" height="7.83"/><polygon class="cls-12" points="986.43 1338.68 1074.66 1337.59 1080.99 1342.23 981.66 1344.14 986.43 1338.68"/><polygon class="cls-11" points="982.79 1351.25 1080.99 1350.15 1080.99 1342.23 981.66 1344.14 982.79 1351.25"/></g><polygon class="cls-13" points="954.1 1003.31 943.63 1029.77 959.11 1053.55 931.16 1051.6 913.73 1073.93 906.92 1046.26 880.68 1036.28 904.42 1021.14 905.63 992.64 927.11 1010.95 954.1 1003.31"/><polygon class="cls-13" points="1073.69 995.11 1053.37 1014.75 1057.75 1042.93 1033.13 1029.33 1008.16 1042.27 1013.26 1014.22 993.45 994.04 1021.23 990.31 1033.95 964.89 1046.02 990.64 1073.69 995.11"/><polygon class="cls-13" points="1184.92 1030.51 1159.51 1042.52 1154.82 1070.64 1135.75 1049.74 1108.03 1053.89 1121.66 1028.97 1109.22 1003.4 1136.71 1008.9 1156.74 988.96 1160.1 1017.28 1184.92 1030.51"/><path class="cls-14" d="M917.9,1083l11.94-6.5a9.19,9.19,0,0,1,7.34-1q4.19,1.14,6.65,6.12,3.36,7.47-1.23,13.33l14.6,12.32-5.52,3-13.54-12.14-5.91,3.22,7.22,15.59-4.63,2.52Zm12.1,13.43,7-3.82a5.74,5.74,0,0,0,3.06-3.92,7.13,7.13,0,0,0-.58-4.7c-.91-1.89-2.05-3-3.44-3.3a5.21,5.21,0,0,0-3.92.73l-7.26,4Z"/><path class="cls-14" d="M961.23,1092.54a7.08,7.08,0,0,0,3.27,4.37,5,5,0,0,0,4.47.19,7.41,7.41,0,0,0,4.11-4.63l4.47,2.07c-1.33,3.9-3.58,6.47-6.76,7.68a10.68,10.68,0,0,1-3.74.77,7.47,7.47,0,0,1-2-.26,8.21,8.21,0,0,1-2-.59,11,11,0,0,1-3.8-3.33,20.08,20.08,0,0,1-3.3-6.44,23.76,23.76,0,0,1-1.41-7.07,13.89,13.89,0,0,1,.75-5.19,9.51,9.51,0,0,1,5.35-5.53,9,9,0,0,1,7.68.45q3.79,2,5.66,7.35l1.52,4.53Zm8.13-8.35a7.79,7.79,0,0,0-3.06-4.24,4.34,4.34,0,0,0-3.92-.21,4.89,4.89,0,0,0-2.87,2.9,8.83,8.83,0,0,0,.19,5.38Z"/><path class="cls-14" d="M992.29,1089.43a5.89,5.89,0,0,0,3.13-1.85,3.28,3.28,0,0,0,.7-3,2.49,2.49,0,0,0-1.26-1.91,3.53,3.53,0,0,0-2.27-.12l-4.3.69a7.38,7.38,0,0,1-5.39-1.1,7.82,7.82,0,0,1-3.24-5.11,8.78,8.78,0,0,1,1.09-7.21,9.87,9.87,0,0,1,5.76-3.84,17,17,0,0,1,3-.54,11.3,11.3,0,0,1,7.18,1.92l-2,4.89a14.62,14.62,0,0,0-3.33-1.16,8.69,8.69,0,0,0-3.62.25,4.51,4.51,0,0,0-2.91,1.78,3.55,3.55,0,0,0-.38,2.7,2.06,2.06,0,0,0,1.09,1.47,3.74,3.74,0,0,0,2.64.36l4-.69c2.52-.44,4.49,0,5.94,1.24a10,10,0,0,1,2.84,5.38,8.29,8.29,0,0,1-1.36,7.08,11.68,11.68,0,0,1-6.47,4.21q-5.79,1.55-11.57-2.28l2.45-4.78A9.14,9.14,0,0,0,992.29,1089.43Z"/><path class="cls-14" d="M1003.89,1053.41l4.85-.79,1.22,8.75,3.53-.58.61,4.4-3.53.58,2.33,16.75c.17,1.46.84,2.08,2,1.85l1.81-.3.76,5.46-2.53.41a5.19,5.19,0,0,1-4.44-1.2,7.26,7.26,0,0,1-2.39-4.93l-2.4-17.25-2.41.4-.62-4.4,2.42-.4Z"/><path class="cls-14" d="M1035.74,1085.43h-.1a4.36,4.36,0,0,1-2,2.29,8.65,8.65,0,0,1-3.86,1,8,8,0,0,1-6.41-2.22,8.77,8.77,0,0,1-2.62-6.16,9.23,9.23,0,0,1,1.73-6.18,7.44,7.44,0,0,1,5.79-2.85l6.77-.38-.14-3c-.09-2.55-1.81-3.7-5.17-3.43a7.63,7.63,0,0,0-2.86.6,3.81,3.81,0,0,0-1.65,1.89l-4-3.28a9,9,0,0,1,8-4.71,11.37,11.37,0,0,1,7.44,1.66q2.85,2,3.15,7.34l.94,19.82-4.9.27Zm-.47-9.73-5.86.33c-2.84.23-4.19,1.48-4.05,3.73a3.25,3.25,0,0,0,1.22,2.45,4.52,4.52,0,0,0,3.55,1,7.44,7.44,0,0,0,4.29-1.11c.74-.66,1.06-2.08.95-4.26Z"/><path class="cls-14" d="M1050,1058.8l4.89.43-1.28,17.24a7.11,7.11,0,0,0,1,4.7,4.35,4.35,0,0,0,3.35,1.95,4.19,4.19,0,0,0,3.56-1.35,7,7,0,0,0,1.69-4.46l1.28-17.24,4.89.42-2.14,29-4.89-.43.23-3.1h-.1a7.26,7.26,0,0,1-6.55,2.88,7.63,7.63,0,0,1-5.25-3.1q-2.46-2.73-2.15-7.65Z"/><path class="cls-14" d="M1079.66,1062.28l4.81,1-.56,3h.09a7.19,7.19,0,0,1,6.84-2,7.48,7.48,0,0,1,4.61,3.29l-4.42,4.2a4.9,4.9,0,0,0-2.89-2.11,4.11,4.11,0,0,0-3.42.74q-1.73,1.08-2.36,4.2l-3.18,17.15-4.81-1Z"/><path class="cls-14" d="M1105.68,1096.73h-.09a4.07,4.07,0,0,1-2.62,1.39,8.47,8.47,0,0,1-3.92-.57,8.59,8.59,0,0,1-5.29-4.51,9.08,9.08,0,0,1-.46-6.77,8.68,8.68,0,0,1,3.61-5.13,7.09,7.09,0,0,1,6.34-.47l6.47,2.21.85-2.91c.74-2.43-.51-4.15-3.74-5.18a7.69,7.69,0,0,0-2.88-.52,3.58,3.58,0,0,0-2.15,1.14l-2.7-4.59a8.57,8.57,0,0,1,9-1.37,12,12,0,0,1,6.43,4.37c1.34,2,1.54,4.68.58,8.07l-5.51,18.93-4.68-1.6Zm2.7-9.29-5.59-1.91q-4.11-1.29-5,2a3.47,3.47,0,0,0,.36,2.76,4.81,4.81,0,0,0,3,2.23c1.94.71,3.4.9,4.38.59s1.65-1.55,2.26-3.63Z"/><path class="cls-14" d="M1127.44,1077.08l4.47,2.19-1.17,2.81h.08a7.08,7.08,0,0,1,7.09-.3,8.5,8.5,0,0,1,4.07,4.8q1.29,3.47-.51,8.06l-7.36,17.59-4.47-2.2,6.6-15.76a7.1,7.1,0,0,0,.53-4.84,4.68,4.68,0,0,0-2.53-3,4.16,4.16,0,0,0-3.78-.08,6.34,6.34,0,0,0-3,3.61l-6.6,15.76-4.47-2.2Z"/><path class="cls-14" d="M1158.09,1083.37l4.27,2.61-4,7.71,3.1,1.9-2,3.87-3.1-1.9-7.69,14.74c-.7,1.27-.52,2.21.53,2.81l1.59,1-2.5,4.8-2.23-1.37a5.93,5.93,0,0,1-2.81-3.91,7.56,7.56,0,0,1,.92-5.48l7.92-15.19-2.13-1.3,2-3.87,2.13,1.3Z"/><path class="cls-15" d="M994.3,1142l1.3-.29a4.17,4.17,0,0,0,2.77-1.75,3.62,3.62,0,0,0,.46-2.92,4,4,0,0,0-1.72-2.49,4.09,4.09,0,0,0-3-.45,3.65,3.65,0,0,0-2,1.28,4.06,4.06,0,0,0-.87,2.73l-3.79.85a7.93,7.93,0,0,1,1.27-5.48,7,7,0,0,1,4.43-3.13,7.64,7.64,0,0,1,9.38,5.34c0,.14.07.29.1.43a8.4,8.4,0,0,1,.12,3,6.35,6.35,0,0,1-1.7,3,6.83,6.83,0,0,1,3,2.07,7.62,7.62,0,0,1,1.42,3,8,8,0,0,1-1,6.37,8.14,8.14,0,0,1-5.23,3.52,7.43,7.43,0,0,1-5.17-.67,8.54,8.54,0,0,1-3.84-4.43l3.79-.85a5.64,5.64,0,0,0,1.91,1.82,3.78,3.78,0,0,0,2.7.29,3.9,3.9,0,0,0,2.55-1.78,4.15,4.15,0,0,0,.51-3.31,4.35,4.35,0,0,0-1.9-2.85,4.2,4.2,0,0,0-3.14-.42l-1.59.36Z"/><path class="cls-16" d="M1020.92,1148q3.2-.4,3-2.65c-.13-1.23-.92-1.89-2.39-2l-2.21-.07a5.39,5.39,0,0,1-3.4-1.21,4.35,4.35,0,0,1-1.47-2.92,4.51,4.51,0,0,1,1-3.63,5.62,5.62,0,0,1,3.78-1.76,9.3,9.3,0,0,1,5.52,1.11l-1.16,2.21a7.55,7.55,0,0,0-4.2-.82,3.15,3.15,0,0,0-1.86.79,2.13,2.13,0,0,0-.62,1.87,1.81,1.81,0,0,0,.69,1.23,3.18,3.18,0,0,0,1.86.61c.46,0,1.08,0,1.88.06a5.16,5.16,0,0,1,3.6,1.28,4.72,4.72,0,0,1,1.43,2.94q.39,4.73-5.25,5.42a9.37,9.37,0,0,1-6.52-1.56l1.42-2A7.35,7.35,0,0,0,1020.92,1148Z"/><path class="cls-16" d="M1032.59,1135.2l-4.52.12-.06-2.24,11.56-.29.06,2.23-4.52.12.36,14.29-2.51.07Z"/><path class="cls-16" d="M1049.32,1146.14l-6.26-.36-1.49,3.61-2.65-.15,7-16.16,2.1.13,5,16.86-2.64-.16Zm-.59-2.26-2-7.35h0l-2.81,7.07Z"/><path class="cls-16" d="M1058.16,1134.14l6.35,1.13a5.07,5.07,0,0,1,3.12,1.67,4.4,4.4,0,0,1,1,3.76,4.61,4.61,0,0,1-4,4l2.48,7.89-2.94-.52-2.11-7.56-3.15-.56-1.25,7-2.46-.45Zm1.19,7.57,3.73.67a2.78,2.78,0,0,0,2.22-.43,2.57,2.57,0,0,0,1-1.67,2.24,2.24,0,0,0-.49-2,2.87,2.87,0,0,0-1.72-.82l-3.86-.69Z"/><path class="cls-16" d="M1075,1152.46c2,.61,3.32.21,3.8-1.22.39-1.17-.07-2.09-1.38-2.77l-2-1a5.4,5.4,0,0,1-2.62-2.48,4.43,4.43,0,0,1-.17-3.26,4.53,4.53,0,0,1,2.42-2.9,5.64,5.64,0,0,1,4.18-.08,9.3,9.3,0,0,1,4.6,3.24l-2,1.55a7.68,7.68,0,0,0-3.52-2.44,3.11,3.11,0,0,0-2,0,2.12,2.12,0,0,0-1.33,1.46,1.76,1.76,0,0,0,.14,1.4,3.2,3.2,0,0,0,1.45,1.32l1.7.8a5.13,5.13,0,0,1,2.77,2.63,4.61,4.61,0,0,1,.12,3.27q-1.54,4.49-7,2.84a9.37,9.37,0,0,1-5.34-4.06l2.13-1.3A7.32,7.32,0,0,0,1075,1152.46Z"/></g><g id="Layer_4" data-name="Layer 4"><g id="layer2"><path id="path3013" class="cls-17" d="M427.14,1170.49c.2.63-34.72-68.15,15-69.2,48.3-1,13.83,69.2,13.83,69.2"/><path id="path3013-4" class="cls-17" d="M427.14,1221.23c.2-.63-34.72,68.15,15,69.2,48.3,1,13.83-69.2,13.83-69.2"/><path id="path3013-8" class="cls-17" d="M413.49,1195.71s-77.12-4.3-53.19-47.85c23.27-42.33,66.84,22.63,66.84,22.63"/><path id="path3013-8-2" class="cls-17" d="M427.14,1221.23s-40.92,63.55-66.66,21c-25-41.32,53-46.57,53-46.57"/><path id="path3013-8-4" class="cls-17" d="M469.58,1195.71s77.12-4.3,53.18-47.85c-23.27-42.33-66.83,22.63-66.83,22.63"/><path id="path3013-8-2-5" class="cls-17" d="M455.93,1221.23s40.91,63.55,66.66,21c25-41.32-53-46.57-53-46.57"/></g><path class="cls-18" d="M376.66,1237.1a161.51,161.51,0,0,1-23.82,2.65c-20.5.57-38.36-7.63-38.53-22.43-.28-25.63,25.65-39.69,44.77-43.6,8.57-1.74,25.08-3.68,41.51.37L391,1197c-2.74-6.24-9.8-6.37-12.68-6.43a38.7,38.7,0,0,0-17,3.65c-9.65,4.43-18.07,18.63-4.4,24.1,7.58,3,17.25.61,27.31-1Z"/><path class="cls-18" d="M776.28,1173.16l-16.46,44.73c.23-4.51,1.12-22.29,1.67-32.55.23-4.21-.69-7.45-2.7-9.58a8.7,8.7,0,0,0-5.73-2.6H716.35l-24,65.18H719l17-46.16-2,46.16h44.66l24-65.18Z"/><polygon class="cls-18" points="638.96 1216.68 608.02 1216.68 624.04 1173.16 593.32 1173.16 569.31 1238.34 630.99 1238.34 638.96 1216.68"/><polygon class="cls-18" points="569.88 1190.22 576.2 1173.16 510.38 1173.16 486.37 1238.34 552.95 1238.34 559.41 1220.74 522.66 1220.74 525.34 1213.51 559.65 1213.51 565.54 1197.46 531.23 1197.46 533.85 1190.22 569.88 1190.22"/><polygon class="cls-18" points="468.54 1238.34 492.56 1173.16 462.55 1173.16 453.84 1196.63 437.95 1196.63 446.6 1173.16 416.48 1173.16 392.54 1238.34 422.56 1238.34 430.73 1216.27 446.66 1216.27 438.48 1238.34 468.54 1238.34"/><polygon class="cls-18" points="291.37 1238.34 315.37 1173.16 283.8 1173.16 259.77 1238.34 291.37 1238.34"/><path class="cls-18" d="M242,1238.34l24-65.18H221.39l-23.06,35s1.47-18.32,1.84-22.73c.27-3.36-.14-12.28-8.33-12.28H155.25l-24,65.18h28.62l17.39-47.14-3.67,47.14H199L230.2,1192l-17,46.33Z"/><polygon class="cls-18" points="674.56 1238.34 698.55 1173.16 666.99 1173.16 642.98 1238.34 674.56 1238.34"/><path class="cls-18" d="M1510.11,1102.41h22.53l-5.05,28.46h-10.26l-1.65-6.28h-.35a22.31,22.31,0,0,1-5.35,5,14.26,14.26,0,0,1-8,2.06,19.7,19.7,0,0,1-7.35-1.42,16.65,16.65,0,0,1-6.26-4.52,22.84,22.84,0,0,1-4.4-8.1,38.81,38.81,0,0,1-1.65-12.07,49.57,49.57,0,0,1,2.09-14.52,36.16,36.16,0,0,1,6.26-12.12,29.81,29.81,0,0,1,10.44-8.3,33.16,33.16,0,0,1,14.61-3,34.16,34.16,0,0,1,11.22,1.67,86.11,86.11,0,0,1,9,3.73l-3.3,19h-14.7c.06-.72.14-1.57.26-2.55s.2-2,.26-3.09.12-2.15.18-3.19.08-2,.08-2.75a15.2,15.2,0,0,0-.08-1.82,8.14,8.14,0,0,0-.44-2,4,4,0,0,0-1-1.62,2.9,2.9,0,0,0-2-.64,5.52,5.52,0,0,0-4.14,2.11,20.79,20.79,0,0,0-3.34,5.6,51,51,0,0,0-2.57,7.9q-1.08,4.41-1.83,9c-.5,3.06-.87,6-1.13,8.93s-.39,5.45-.39,7.61c0,.65,0,1.47.09,2.45a11.46,11.46,0,0,0,.56,2.89,7.08,7.08,0,0,0,1.4,2.46,3.32,3.32,0,0,0,2.65,1c1.91,0,3.76-1.18,5.57-3.53s3.17-6.28,4.08-11.78h-7.3Z"/><path class="cls-18" d="M1558.29,1108.6q-.43,2.16-.69,3.72a17.7,17.7,0,0,0-.26,3,7.29,7.29,0,0,0,2.13,5.5q2.13,2.06,6.3,2.06a9.6,9.6,0,0,0,5-1.18,9.76,9.76,0,0,0,3.22-3.14,16.94,16.94,0,0,0,2-4.52q.73-2.55,1.26-5.39l7.39-40h7.92l-7.57,40.24a45.89,45.89,0,0,1-2.52,8.83,21.82,21.82,0,0,1-4.74,7.27,21.52,21.52,0,0,1-8,5,35,35,0,0,1-12.09,1.82q-10,0-14.78-3.68t-4.79-11.34a62.25,62.25,0,0,1,.79-8.73q.78-5.29,2-11.48l5.3-27.88h19.74Z"/><path class="cls-18" d="M1608.65,1130.87h-18.79l11.74-62.32h18.87Z"/><path class="cls-18" d="M1618.21,1130.87l11.74-62.32h23.4a32.67,32.67,0,0,1,9.43,1.23,14.85,14.85,0,0,1,6.7,4.07,18.53,18.53,0,0,1,4,7.46,40.55,40.55,0,0,1,1.35,11.29,61.68,61.68,0,0,1-1.61,14,35.88,35.88,0,0,1-5.35,12.27,28,28,0,0,1-9.79,8.69q-6,3.29-14.91,3.28ZM1642,1124a6.48,6.48,0,0,0,5.09-2.69,24.76,24.76,0,0,0,3.82-6.87,61.75,61.75,0,0,0,2.7-9.23c.72-3.37,1.3-6.62,1.74-9.77s.75-6,1-8.44a52.8,52.8,0,0,0,.3-5.3,8.86,8.86,0,0,0-1.09-4.76,4.12,4.12,0,0,0-3.78-1.71h-4.18l-9.3,48.77Z"/><path class="cls-18" d="M1687.52,1068.55h36.62l-1.4,7.46H1705l-3.65,18.94h14.87l-1.39,7.36H1700l-4,21h17.74l-1.3,7.55h-36.62Z"/><path class="cls-18" d="M1474.27,1216.32h-21.8l-1.3-11.77h-17.23l-6.62,11.77h-9l27.47-47h22.08ZM1437,1199.15h13.5l-2.14-20.13Z"/><path class="cls-18" d="M1536.76,1180.5a12.36,12.36,0,0,1-3.07,8.07q-3.07,3.71-10.15,5.62l10.8,22.13h-20.77l-8.2-20.5h-1l-5.5,20.5h-20.11l12.57-47h24.5a75.49,75.49,0,0,1,8.1.41,23.19,23.19,0,0,1,6.66,1.62,11.11,11.11,0,0,1,4.52,3.41A9.25,9.25,0,0,1,1536.76,1180.5Zm-26.82,10.59a6.69,6.69,0,0,0,4.14-1.3,10.51,10.51,0,0,0,2.8-3.14,14.09,14.09,0,0,0,1.53-4,17.4,17.4,0,0,0,.47-3.67,6.24,6.24,0,0,0-.84-3.29c-.56-.91-1.77-1.37-3.63-1.37h-4.19l-4.66,16.73Z"/><path class="cls-18" d="M1575,1168.59a42.61,42.61,0,0,1,13,1.63,16.94,16.94,0,0,1,7.87,5,17.45,17.45,0,0,1,2.88,5.18,19.83,19.83,0,0,1,1,6.66,28.52,28.52,0,0,1-.75,6.51,32.1,32.1,0,0,1-2.09,6.25,31.59,31.59,0,0,1-3.26,5.63,26.93,26.93,0,0,1-4.24,4.62,25,25,0,0,1-10.11,5.29,55.39,55.39,0,0,1-14.11,1.52,51.7,51.7,0,0,1-13-1.33,16.76,16.76,0,0,1-7.82-4.29,14.2,14.2,0,0,1-3.21-5.26,23.38,23.38,0,0,1-1.17-8,29.36,29.36,0,0,1,3.68-14.69,26.69,26.69,0,0,1,10.48-10.25,33.51,33.51,0,0,1,9.13-3.4A54.93,54.93,0,0,1,1575,1168.59Zm-10.52,43.14a6.39,6.39,0,0,0,4-1.52,16.4,16.4,0,0,0,3.54-4.07,37,37,0,0,0,3-5.8,53.42,53.42,0,0,0,2.28-6.74,65.41,65.41,0,0,0,1.45-6.92,43.66,43.66,0,0,0,.51-6.25c0-2.56-.33-4.33-1-5.29a3.23,3.23,0,0,0-2.84-1.44,6.66,6.66,0,0,0-4.1,1.48,17.29,17.29,0,0,0-3.68,4,30.61,30.61,0,0,0-3.07,5.69,59.88,59.88,0,0,0-2.33,6.63,53.54,53.54,0,0,0-1.49,6.73,42,42,0,0,0-.51,6.14c0,2.81.38,4.75,1.16,5.81a3.61,3.61,0,0,0,3,1.55Z"/><path class="cls-18" d="M1625.34,1199.52c-.31,1.09-.56,2-.74,2.81a9.78,9.78,0,0,0-.28,2.22,4.8,4.8,0,0,0,2.28,4.15c1.52,1,3.77,1.54,6.75,1.55a13.8,13.8,0,0,0,5.36-.89,9.71,9.71,0,0,0,3.44-2.36,11.57,11.57,0,0,0,2.15-3.41,34.64,34.64,0,0,0,1.35-4.07l7.91-30.19H1662l-8.1,30.34a28,28,0,0,1-2.7,6.66,17.51,17.51,0,0,1-5.08,5.48,25.86,25.86,0,0,1-8.52,3.73,51.27,51.27,0,0,1-13,1.37q-10.71,0-15.83-2.77a9.1,9.1,0,0,1-5.13-8.55,33.21,33.21,0,0,1,.84-6.59c.56-2.66,1.27-5.55,2.14-8.65l5.69-21h21.14Z"/><path class="cls-18" d="M1708.8,1216.32H1687l-10.34-34-9.13,34h-8.38l12.58-47H1694l9.78,34.41,9.22-34.41h8.57Z"/><path class="cls-18" d="M1719.14,1216.32l12.57-47h25.06a49.63,49.63,0,0,1,10.1.92,18,18,0,0,1,7.17,3.08,13.22,13.22,0,0,1,4.29,5.62,22.29,22.29,0,0,1,1.44,8.51,33.35,33.35,0,0,1-1.72,10.58,23.75,23.75,0,0,1-5.73,9.25,28.74,28.74,0,0,1-10.48,6.55,44.88,44.88,0,0,1-16,2.48Zm25.52-5.18a8.14,8.14,0,0,0,5.45-2,18.34,18.34,0,0,0,4.09-5.17,36.86,36.86,0,0,0,2.89-7,72.06,72.06,0,0,0,1.86-7.36c.47-2.37.81-4.49,1-6.37a38.27,38.27,0,0,0,.32-4,5.15,5.15,0,0,0-1.16-3.59c-.78-.87-2.13-1.3-4-1.3h-4.47l-10,36.78Z"/><path class="cls-18" d="M1423.88,1256h-15l-11.08,41.37h-20.12l11.08-41.37H1374l1.68-5.62h49.83Z"/><path class="cls-18" d="M1470.54,1297.39h-20.12l5.59-21h-11.46l-5.59,21h-20.12l12.58-47h20.21l-5.49,20.42h11.36l5.49-20.42h20.31Z"/><path class="cls-18" d="M1493.45,1250.4h39.21l-1.49,5.62h-19l-3.91,14.28h15.93l-1.49,5.55h-15.93l-4.28,15.84h19l-1.4,5.7h-39.21Z"/><path class="cls-18" d="M1554.33,1248.21h22.72l1.59,32,15.55-32h18.44l2.43,32,15.64-32h9.78l-23,47h-21l-2-26.56-14,26.56h-22.35Z"/><path class="cls-18" d="M1673.27,1247.47a42.93,42.93,0,0,1,13,1.63,16.94,16.94,0,0,1,7.87,5,17.48,17.48,0,0,1,2.89,5.18,19.83,19.83,0,0,1,1,6.66,29.23,29.23,0,0,1-.74,6.52,33.53,33.53,0,0,1-2.1,6.25,31.16,31.16,0,0,1-3.26,5.62,26.54,26.54,0,0,1-4.23,4.63,25.27,25.27,0,0,1-10.11,5.29,56.31,56.31,0,0,1-14.11,1.52,51.25,51.25,0,0,1-13-1.34,16.67,16.67,0,0,1-7.82-4.29,14.4,14.4,0,0,1-3.22-5.25,23.37,23.37,0,0,1-1.16-8,29.13,29.13,0,0,1,3.68-14.69,26.59,26.59,0,0,1,10.44-10.2,33.21,33.21,0,0,1,9.13-3.41A55.1,55.1,0,0,1,1673.27,1247.47Zm-10.53,43.15a6.43,6.43,0,0,0,4.06-1.52,16.36,16.36,0,0,0,3.53-4.07,37.57,37.57,0,0,0,3-5.81,53.28,53.28,0,0,0,2.28-6.73,63,63,0,0,0,1.44-6.92,43.68,43.68,0,0,0,.51-6.26c0-2.56-.32-4.33-1-5.29a3.24,3.24,0,0,0-2.85-1.44,6.64,6.64,0,0,0-4.09,1.48,17.29,17.29,0,0,0-3.68,4,30.47,30.47,0,0,0-3.08,5.7,59.67,59.67,0,0,0-2.32,6.62,51.87,51.87,0,0,0-1.5,6.73,40.82,40.82,0,0,0-.51,6.15q0,4.21,1.17,5.8A3.58,3.58,0,0,0,1662.74,1290.62Z"/><path class="cls-18" d="M1756.82,1259.39a12.34,12.34,0,0,1-3.08,8.06q-3.08,3.71-10.15,5.63l10.8,22.12h-20.77l-8.19-20.49h-1l-5.49,20.49h-20.12l12.57-47h24.5a75.49,75.49,0,0,1,8.1.41,23.2,23.2,0,0,1,6.66,1.63,11,11,0,0,1,4.52,3.4A9.14,9.14,0,0,1,1756.82,1259.39ZM1730,1270a6.72,6.72,0,0,0,4.15-1.3,10.61,10.61,0,0,0,2.79-3.14,13.71,13.71,0,0,0,1.54-4,17.38,17.38,0,0,0,.46-3.66,6.25,6.25,0,0,0-.84-3.3c-.55-.91-1.76-1.36-3.63-1.36h-4.19l-4.66,16.72Z"/><path class="cls-18" d="M1770.32,1248.21h20.21l-11,40.78h18.91l-1.58,6.21h-39.12Z"/><path class="cls-18" d="M1802.64,1295.2l12.58-47h25a49,49,0,0,1,10.11.93,18.17,18.17,0,0,1,7.17,3.07,13.26,13.26,0,0,1,4.28,5.62,22.08,22.08,0,0,1,1.45,8.51,33.43,33.43,0,0,1-1.73,10.59,23.68,23.68,0,0,1-5.72,9.25,29.18,29.18,0,0,1-10.48,6.55,45.1,45.1,0,0,1-16,2.47Zm25.52-5.18a8.09,8.09,0,0,0,5.45-2,18.24,18.24,0,0,0,4.1-5.18,36.86,36.86,0,0,0,2.89-7q1.15-3.81,1.86-7.36c.47-2.37.81-4.49,1-6.36s.32-3.21.32-4a5.19,5.19,0,0,0-1.16-3.59q-1.17-1.29-4-1.29h-4.48l-10,36.77Z"/></g><g id="Layer_17" data-name="Layer 17"><path d="M1278.91,1346.34v-.22a1,1,0,0,0,0-.24,2.11,2.11,0,0,0-.14-.74.56.56,0,0,0-.56-.34,1.16,1.16,0,0,0-.75.32,1,1,0,0,0-.37.85.82.82,0,0,0,.18.56,1.43,1.43,0,0,0,.5.34,5.05,5.05,0,0,0,.69.22l.76.17a8.94,8.94,0,0,1,1,.32,3.17,3.17,0,0,1,.85.5,2.11,2.11,0,0,1,.59.76,2.51,2.51,0,0,1,.22,1.11,2.66,2.66,0,0,1-.43,1.55,3.09,3.09,0,0,1-1.18,1,5.62,5.62,0,0,1-1.79.54,16.12,16.12,0,0,1-2.19.15,13.8,13.8,0,0,1-2.94-.26,7.71,7.71,0,0,1-1.63-.51l.46-2.2h3v.42a1.27,1.27,0,0,0,.23.8,1,1,0,0,0,.8.3,1.1,1.1,0,0,0,.92-.36,1.17,1.17,0,0,0,.27-.67.74.74,0,0,0-.23-.54,1.94,1.94,0,0,0-.58-.4,5.16,5.16,0,0,0-.78-.28l-.83-.23a3.87,3.87,0,0,1-.65-.23,2.38,2.38,0,0,1-.69-.44,2.2,2.2,0,0,1-.55-.73,2.5,2.5,0,0,1-.22-1.14,2.71,2.71,0,0,1,.47-1.61,3.62,3.62,0,0,1,1.23-1,6.44,6.44,0,0,1,1.72-.57,10.32,10.32,0,0,1,1.92-.18,11.69,11.69,0,0,1,2.29.22,6.86,6.86,0,0,1,1.76.58l-.5,2.22Z"/><path d="M1289.71,1343.32a6.2,6.2,0,0,1,3.8.93,3.79,3.79,0,0,1,1.26,3.21,6.68,6.68,0,0,1-.46,2.5,4.83,4.83,0,0,1-1.3,1.83,7.3,7.3,0,0,1-4.84,1.41,5.78,5.78,0,0,1-3.87-1A4,4,0,0,1,1283,1349a5.85,5.85,0,0,1,.58-2.6,5.18,5.18,0,0,1,1.69-1.94A7.82,7.82,0,0,1,1289.71,1343.32Zm-1.5,8.39a1.17,1.17,0,0,0,1-.62,5,5,0,0,0,.65-1.51,14.24,14.24,0,0,0,.36-1.84,15.44,15.44,0,0,0,.12-1.67,2.94,2.94,0,0,0-.12-.93.5.5,0,0,0-.52-.32,1.24,1.24,0,0,0-1,.64,5.35,5.35,0,0,0-.69,1.52,11.11,11.11,0,0,0-.39,1.8,12.63,12.63,0,0,0-.12,1.5C1287.44,1351.23,1287.7,1351.71,1288.21,1351.71Z"/><path d="M1303.63,1343.57h4.49l-2,9.46h-3.56l-.4-1.41H1302a4.56,4.56,0,0,1-1.55,1.13,4.79,4.79,0,0,1-2,.45,3,3,0,0,1-2.07-.67,2.23,2.23,0,0,1-.75-1.75,6.37,6.37,0,0,1,.19-1.37c.12-.55.24-1.07.34-1.55l.92-4.29h4.47l-1.1,5.15a3.13,3.13,0,0,1-.09.41l-.09.48a1,1,0,0,1-.07.44,1.93,1.93,0,0,0,0,.34,1,1,0,0,0,.15.56.57.57,0,0,0,.51.23,1.21,1.21,0,0,0,.75-.27,2.89,2.89,0,0,0,.55-.5Z"/><path d="M1310.08,1343.57h3.59l.33,1.65h.15a4.78,4.78,0,0,1,1.3-1.35,3.65,3.65,0,0,1,2.09-.55h.27a3,3,0,0,1,.42.06,2.81,2.81,0,0,1,.49.16,2.12,2.12,0,0,1,.49.27l-1,4.53h-2.4a6.79,6.79,0,0,0-.24-1.9c-.13-.36-.34-.54-.64-.54a1.28,1.28,0,0,0-.47.1,1.45,1.45,0,0,0-.52.43l-1.4,6.58h-4.49Z"/><path d="M1328.69,1352.5a9.14,9.14,0,0,1-1.94.54,15.12,15.12,0,0,1-2.33.16,8.72,8.72,0,0,1-2.1-.23,4.6,4.6,0,0,1-1.66-.74,3.45,3.45,0,0,1-1.1-1.3,4.44,4.44,0,0,1-.39-2,6,6,0,0,1,.4-2.21,4.93,4.93,0,0,1,1.24-1.79,5.66,5.66,0,0,1,2.1-1.21,9,9,0,0,1,3-.45,11.55,11.55,0,0,1,2.49.24,3.05,3.05,0,0,1,1.74,1l-.62,2.82h-3V1346a2.44,2.44,0,0,0-.15-1,.5.5,0,0,0-.51-.3,1.29,1.29,0,0,0-1.07.61,5,5,0,0,0-.76,1.45,9.08,9.08,0,0,0-.44,1.78,10.69,10.69,0,0,0-.15,1.59,4.17,4.17,0,0,0,0,.5,1.52,1.52,0,0,0,.1.47.94.94,0,0,0,.2.35.49.49,0,0,0,.38.14,1.25,1.25,0,0,0,.5-.14,1.56,1.56,0,0,0,.55-.4,3.61,3.61,0,0,0,.51-.72,3.54,3.54,0,0,0,.37-1h3.15Z"/><path d="M1335.18,1348.6a7.4,7.4,0,0,0-.12.93v1.23a2.42,2.42,0,0,0,.1.45.87.87,0,0,0,.22.35.53.53,0,0,0,.41.15,1,1,0,0,0,.45-.14,2.23,2.23,0,0,0,.5-.37,3.94,3.94,0,0,0,.49-.59,3,3,0,0,0,.36-.8h3.61l-.57,2.36a4.6,4.6,0,0,1-1,.48,8.63,8.63,0,0,1-1.21.32q-.63.12-1.29.18h-1.26a9.62,9.62,0,0,1-2-.2,4.35,4.35,0,0,1-1.65-.68A3.46,3.46,0,0,1,1331,1351a4.18,4.18,0,0,1-.41-2,6.57,6.57,0,0,1,.34-2.11,4.6,4.6,0,0,1,1.14-1.83,5.54,5.54,0,0,1,2.16-1.29,10.18,10.18,0,0,1,3.38-.49,6.42,6.42,0,0,1,3.31.69,2.31,2.31,0,0,1,1.11,2.13,5.08,5.08,0,0,1-.18,1.29,3,3,0,0,1-.53,1.17Zm2.93-2.61a1.38,1.38,0,0,0-.22-.93.71.71,0,0,0-.53-.24,1,1,0,0,0-.65.23,2.3,2.3,0,0,0-.54.62,5.56,5.56,0,0,0-.44.88,9,9,0,0,0-.33,1h2.51a3.93,3.93,0,0,1,.09-.55,1.88,1.88,0,0,1,.08-.52,3.87,3.87,0,0,0,0-.48Z"/><path d="M1346.73,1351.24a2,2,0,0,1-.18.84,1.91,1.91,0,0,1-.51.62,2.51,2.51,0,0,1-.73.37,2.63,2.63,0,0,1-.84.13,2.07,2.07,0,0,1-1.31-.42,1.52,1.52,0,0,1-.54-1.29,1.78,1.78,0,0,1,.66-1.47,2.44,2.44,0,0,1,1.54-.51,2.09,2.09,0,0,1,1.36.43A1.54,1.54,0,0,1,1346.73,1351.24Zm1.1-5.21a2,2,0,0,1-.18.84,1.77,1.77,0,0,1-.51.61,2.32,2.32,0,0,1-.73.38,3,3,0,0,1-.84.13,2.07,2.07,0,0,1-1.31-.42,1.58,1.58,0,0,1-.54-1.32,1.69,1.69,0,0,1,.67-1.44,2.5,2.5,0,0,1,1.53-.52,2.13,2.13,0,0,1,1.36.42,1.56,1.56,0,0,1,.55,1.29Z"/><path d="M1358.81,1345h.15a6.88,6.88,0,0,1,1-.78,6.65,6.65,0,0,1,1.1-.55,4.09,4.09,0,0,1,1.43-.24,3,3,0,0,1,1.9.59,1.9,1.9,0,0,1,.74,1.59,4,4,0,0,1-.06.69,4.38,4.38,0,0,1-.16.82l-.18.86c-.07.28-.12.54-.17.78l-.92,4.29h-4.47l1.21-5.75a3.11,3.11,0,0,1,.11-.58,3.33,3.33,0,0,0,.07-.54.83.83,0,0,0-.17-.54.58.58,0,0,0-.49-.21,1.23,1.23,0,0,0-.76.29,3.85,3.85,0,0,0-.56.51l-1.46,6.82h-4.48l3.12-14.79h4.51Z"/><path d="M1371.62,1349.33q-.12.51-.18.9a4.2,4.2,0,0,0-.07.62.52.52,0,0,0,.32.55,4.4,4.4,0,0,0,1.2.11l-.33,1.52a1.84,1.84,0,0,1-.47.06l-.71.06h-1.5a7.83,7.83,0,0,1-1.08-.07,3.15,3.15,0,0,1-1-.31,1.8,1.8,0,0,1-.67-.67,2.45,2.45,0,0,1-.25-1.19v-.66a5.22,5.22,0,0,1,.15-.88l.92-4.38h-1.72l.31-1.47a11.65,11.65,0,0,0,1.43-.4,5.63,5.63,0,0,0,1.13-.55,5.22,5.22,0,0,0,1-.81c.35-.38.69-.78,1-1.19h2.26l-.63,3h1.07a4.81,4.81,0,0,0,1.46-.2,4,4,0,0,0,1.12-.57,6.3,6.3,0,0,0,1-.93c.31-.36.65-.78,1-1.25h2.27l-.64,3h1.71l-.28,1.47h-1.74l-.9,4.29c-.08.34-.13.64-.18.9s0,.41-.06.62.1.48.31.55a4.4,4.4,0,0,0,1.2.11l-.33,1.52a1.84,1.84,0,0,1-.47.06l-.7.06h-1.51a7.83,7.83,0,0,1-1.08-.07,3.06,3.06,0,0,1-.94-.31,1.82,1.82,0,0,1-.68-.67,2.45,2.45,0,0,1-.25-1.19v-.66a6.47,6.47,0,0,1,.15-.88l.92-4.38h-2.79Z"/><path d="M1385,1356.72h-4.49l2.78-13.15h3.58l.4,1.41h.13a4.68,4.68,0,0,1,1.77-1.2,5.34,5.34,0,0,1,1.93-.37,3.3,3.3,0,0,1,1.28.23,2.24,2.24,0,0,1,.83.63,2.49,2.49,0,0,1,.44,1,5,5,0,0,1,.13,1.16v.93a12.56,12.56,0,0,1-.2,1.37,12,12,0,0,1-.44,1.56,5.86,5.86,0,0,1-.76,1.47,3.7,3.7,0,0,1-1.19,1.07,3.28,3.28,0,0,1-1.7.42,4.5,4.5,0,0,1-2-.48,3.73,3.73,0,0,1-.73-.52,2.35,2.35,0,0,1-.48-.6h-.13Zm2.33-5.65a1,1,0,0,0,.88-.56,5.36,5.36,0,0,0,.58-1.32,10,10,0,0,0,.31-1.52,8.47,8.47,0,0,0,.1-1.13,1.67,1.67,0,0,0-.14-.73.53.53,0,0,0-.52-.29,1.21,1.21,0,0,0-.79.3,3.39,3.39,0,0,0-.55.52l-.86,4a4.81,4.81,0,0,0,.42.48.85.85,0,0,0,.56.25Z"/><path d="M1401.12,1346.34v-.22a1,1,0,0,0,0-.24,1.71,1.71,0,0,0-.14-.74.56.56,0,0,0-.56-.34,1.16,1.16,0,0,0-.75.32,1,1,0,0,0-.37.85.82.82,0,0,0,.18.56,1.43,1.43,0,0,0,.5.34,5.54,5.54,0,0,0,.69.22l.76.17a8.94,8.94,0,0,1,1,.32,3.17,3.17,0,0,1,.85.5,2.11,2.11,0,0,1,.59.76,2.51,2.51,0,0,1,.22,1.11,2.66,2.66,0,0,1-.43,1.55,3.09,3.09,0,0,1-1.18,1,5.62,5.62,0,0,1-1.79.54,15.86,15.86,0,0,1-2.18.15,14.37,14.37,0,0,1-3-.26,7.71,7.71,0,0,1-1.63-.51l.46-2.2h3v.42a1.27,1.27,0,0,0,.23.8,1,1,0,0,0,.8.3,1.1,1.1,0,0,0,.92-.36,1.17,1.17,0,0,0,.27-.67.74.74,0,0,0-.23-.54,1.94,1.94,0,0,0-.58-.4,5.16,5.16,0,0,0-.78-.28l-.83-.23a3.87,3.87,0,0,1-.65-.23,2.38,2.38,0,0,1-.69-.44,2.2,2.2,0,0,1-.55-.73,2.5,2.5,0,0,1-.22-1.14,2.71,2.71,0,0,1,.47-1.61,3.62,3.62,0,0,1,1.23-1,6.44,6.44,0,0,1,1.72-.57,10.42,10.42,0,0,1,1.93-.18,11.59,11.59,0,0,1,2.28.22,6.86,6.86,0,0,1,1.76.58l-.5,2.22Z"/><path d="M1409.39,1351.24a1.75,1.75,0,0,1-.19.84,1.68,1.68,0,0,1-.5.62,2.63,2.63,0,0,1-1.58.5,2.13,2.13,0,0,1-1.31-.42,1.52,1.52,0,0,1-.53-1.29,1.78,1.78,0,0,1,.66-1.47,2.44,2.44,0,0,1,1.54-.51,2.09,2.09,0,0,1,1.36.43A1.54,1.54,0,0,1,1409.39,1351.24Zm1.1-5.21a1.79,1.79,0,0,1-.69,1.45,2.82,2.82,0,0,1-.73.38,3.07,3.07,0,0,1-.85.13,2.13,2.13,0,0,1-1.31-.42,1.58,1.58,0,0,1-.54-1.32,1.73,1.73,0,0,1,.68-1.44,2.44,2.44,0,0,1,1.53-.52,2.13,2.13,0,0,1,1.36.42,1.56,1.56,0,0,1,.55,1.29Z"/><path d="M1410.64,1353l7.68-14h2l-7.43,14Z"/><path d="M1416.14,1353l7.68-14h2l-7.43,14Z"/><path d="M1425.41,1343.57h4.66l.77,6.46,2.66-6.46h4.2l.75,6.46,2.66-6.46h2.34l-4.38,9.46h-4.6l-.81-4.8-2.23,4.8h-4.6Z"/><path d="M1443.69,1343.57h4.66l.77,6.46,2.66-6.46H1456l.74,6.46,2.67-6.46h2.33l-4.38,9.46h-4.6l-.81-4.8-2.22,4.8h-4.6Z"/><path d="M1462,1343.57h4.66l.77,6.46,2.67-6.46h4.2l.75,6.46,2.66-6.46H1480l-4.38,9.46H1471l-.81-4.8L1468,1353h-4.6Z"/><path d="M1483.71,1351.09a1.89,1.89,0,0,1-.21.9,2,2,0,0,1-.55.66,2.65,2.65,0,0,1-.78.41,3.22,3.22,0,0,1-.93.14,2.21,2.21,0,0,1-1.42-.45,1.67,1.67,0,0,1-.58-1.42,2,2,0,0,1,.73-1.56,2.55,2.55,0,0,1,.76-.41,3,3,0,0,1,.89-.14,2.41,2.41,0,0,1,1.49.45A1.68,1.68,0,0,1,1483.71,1351.09Z"/><path d="M1490.7,1347.57l5.13-4h2.9l-4.38,3.58,3.28,5.88h-4.93l-2.24-4.43-.92,4.43h-4.49l3.12-14.79h4.51Z"/><path d="M1499.81,1344.38a9.8,9.8,0,0,1,2.3-.8,12.22,12.22,0,0,1,2.63-.26,10.76,10.76,0,0,1,2.33.22,4,4,0,0,1,1.47.64,2.17,2.17,0,0,1,.77,1,3.63,3.63,0,0,1,.22,1.3v.9a4.22,4.22,0,0,1-.12.82l-1,4.84h-3.54l-.4-1.41h-.13a5.05,5.05,0,0,1-1.64,1.18,4.61,4.61,0,0,1-1.86.4,3.37,3.37,0,0,1-1-.15,2.77,2.77,0,0,1-.9-.47,2.34,2.34,0,0,1-.64-.82,2.77,2.77,0,0,1-.24-1.2,2.56,2.56,0,0,1,.63-1.81,3.7,3.7,0,0,1,1.65-1,9.06,9.06,0,0,1,2.31-.43c.85-.06,1.72-.09,2.58-.09,0-.15.07-.36.11-.63a5.51,5.51,0,0,0,.07-.71,1.38,1.38,0,0,0-.21-.74.94.94,0,0,0-.87-.34,1.34,1.34,0,0,0-1.13.45,2.33,2.33,0,0,0-.48,1.09h-3.21Zm5.06,3.87h-.4a3.11,3.11,0,0,0-1.09.17,2,2,0,0,0-.72.43,1.53,1.53,0,0,0-.41.59,1.65,1.65,0,0,0-.13.66,1,1,0,0,0,.27.79.93.93,0,0,0,.65.27,1.54,1.54,0,0,0,.92-.33,1.44,1.44,0,0,0,.56-.88Z"/><path d="M1519.34,1343.57h3.57l-1.81,8.55a6.27,6.27,0,0,1-.66,1.83,4.34,4.34,0,0,1-1.28,1.45,6.12,6.12,0,0,1-2.07,1,11.24,11.24,0,0,1-3,.35h-2.66l-.7,0,.42-1.58a11.65,11.65,0,0,0,1.44.12h1.26a4.15,4.15,0,0,0,1.11-.12,1.8,1.8,0,0,0,.75-.39,2,2,0,0,0,.49-.7,5.07,5.07,0,0,0,.29-1.08l.27-1.43h-.16a4.45,4.45,0,0,1-.38.48,3,3,0,0,1-.65.52,4,4,0,0,1-.94.42,4.23,4.23,0,0,1-1.22.17,3.45,3.45,0,0,1-1.31-.23,2.22,2.22,0,0,1-.87-.64,2.65,2.65,0,0,1-.48-1,5,5,0,0,1-.15-1.22v-.88a10.12,10.12,0,0,1,.69-2.87,5.44,5.44,0,0,1,.86-1.42,4.31,4.31,0,0,1,1.34-1.06,4.19,4.19,0,0,1,2-.42,6.48,6.48,0,0,1,.77.07,3.78,3.78,0,0,1,.81.24,2.11,2.11,0,0,1,.71.51,2.35,2.35,0,0,1,.48.86h.13Zm-2.46,1.91a1,1,0,0,0-.88.56,5.26,5.26,0,0,0-.57,1.31,8.61,8.61,0,0,0-.32,1.49,7.89,7.89,0,0,0-.1,1.09,1.67,1.67,0,0,0,.14.73.52.52,0,0,0,.52.3.92.92,0,0,0,.43-.11,3.34,3.34,0,0,0,.4-.25l.33-.3.2-.24.82-3.85a6.26,6.26,0,0,0-.41-.49A.74.74,0,0,0,1516.88,1345.48Z"/><path d="M1532.06,1343.57h3.56l-1.8,8.55a6.27,6.27,0,0,1-.66,1.83,4.49,4.49,0,0,1-1.29,1.45,6.12,6.12,0,0,1-2.07,1,11.24,11.24,0,0,1-3,.35h-2.72l-.71,0,.42-1.58a11.65,11.65,0,0,0,1.44.12h1.27a4.15,4.15,0,0,0,1.11-.12,1.8,1.8,0,0,0,.75-.39,1.9,1.9,0,0,0,.48-.7,5.1,5.1,0,0,0,.3-1.08l.26-1.43h-.15a4.54,4.54,0,0,1-.39.48,3,3,0,0,1-.65.52,3.9,3.9,0,0,1-.93.42,4.23,4.23,0,0,1-1.22.17,3.45,3.45,0,0,1-1.31-.23,2.22,2.22,0,0,1-.87-.64,2.65,2.65,0,0,1-.48-1,4.22,4.22,0,0,1-.16-1.22v-.88a7.62,7.62,0,0,1,.21-1.34,8.23,8.23,0,0,1,.48-1.53,5.13,5.13,0,0,1,.86-1.42,4.31,4.31,0,0,1,1.34-1.06,4.08,4.08,0,0,1,2-.42,6.48,6.48,0,0,1,.77.07,3.78,3.78,0,0,1,.81.24,2.07,2.07,0,0,1,.7.51,2.24,2.24,0,0,1,.49.86h.13Zm-2.46,1.91a1,1,0,0,0-.88.56,5.29,5.29,0,0,0-.58,1.31,9.62,9.62,0,0,0-.31,1.49,7.89,7.89,0,0,0-.1,1.09,1.67,1.67,0,0,0,.14.73.52.52,0,0,0,.52.3.92.92,0,0,0,.43-.11,2.59,2.59,0,0,0,.39-.25,2.35,2.35,0,0,0,.33-.3,1.21,1.21,0,0,0,.21-.24l.81-3.85a3.72,3.72,0,0,0-.4-.49.78.78,0,0,0-.56-.24Z"/><path d="M1540.07,1353h-4.49l3.12-14.79h4.51Z"/><path d="M1547,1348.6a7.4,7.4,0,0,0-.12.93v1.23a1.73,1.73,0,0,0,.1.45.87.87,0,0,0,.22.35.53.53,0,0,0,.41.15,1,1,0,0,0,.45-.14,2.23,2.23,0,0,0,.5-.37,3.94,3.94,0,0,0,.49-.59,3,3,0,0,0,.36-.8H1553l-.57,2.36a4.6,4.6,0,0,1-1,.48,8.63,8.63,0,0,1-1.21.32q-.63.12-1.29.18h-1.26a9.62,9.62,0,0,1-2-.2,4.35,4.35,0,0,1-1.65-.68,3.42,3.42,0,0,1-1.11-1.28,4.18,4.18,0,0,1-.41-2,6.57,6.57,0,0,1,.34-2.11,4.6,4.6,0,0,1,1.14-1.83,5.54,5.54,0,0,1,2.16-1.29,10.18,10.18,0,0,1,3.38-.49,6.42,6.42,0,0,1,3.31.69,2.31,2.31,0,0,1,1.11,2.13,5.57,5.57,0,0,1-.18,1.29,3.35,3.35,0,0,1-.53,1.17Zm3-2.6a1.45,1.45,0,0,0-.22-.93.71.71,0,0,0-.53-.24,1,1,0,0,0-.65.23,2.3,2.3,0,0,0-.54.62,5.56,5.56,0,0,0-.44.88,9,9,0,0,0-.33,1h2.51a3.93,3.93,0,0,1,.09-.55l.08-.52A4,4,0,0,0,1550,1346Z"/><path d="M1558.75,1351.09a1.89,1.89,0,0,1-.21.9,2,2,0,0,1-.55.66,2.65,2.65,0,0,1-.78.41,3.22,3.22,0,0,1-.93.14,2.21,2.21,0,0,1-1.42-.45,1.67,1.67,0,0,1-.58-1.42,2,2,0,0,1,.73-1.56,2.55,2.55,0,0,1,.76-.41,3,3,0,0,1,.89-.14,2.41,2.41,0,0,1,1.49.45A1.68,1.68,0,0,1,1558.75,1351.09Z"/><path d="M1570.08,1352.5a9.4,9.4,0,0,1-1.95.54,15,15,0,0,1-2.32.16,8.72,8.72,0,0,1-2.1-.23,4.44,4.44,0,0,1-1.66-.74,3.38,3.38,0,0,1-1.1-1.3,4.32,4.32,0,0,1-.4-2,5.74,5.74,0,0,1,.41-2.21,4.91,4.91,0,0,1,1.23-1.79,5.66,5.66,0,0,1,2.1-1.21,9,9,0,0,1,3-.45,11.52,11.52,0,0,1,2.48.24,3,3,0,0,1,1.74,1l-.62,2.82h-3V1346a2.29,2.29,0,0,0-.16-1,.53.53,0,0,0-.5-.3,1.32,1.32,0,0,0-1.08.61,5,5,0,0,0-.76,1.45,11,11,0,0,0-.58,3.37,4.17,4.17,0,0,0,0,.5,1.52,1.52,0,0,0,.1.47.84.84,0,0,0,.21.35.47.47,0,0,0,.37.14,1.29,1.29,0,0,0,.51-.14,1.81,1.81,0,0,0,.55-.4,3.57,3.57,0,0,0,.5-.72,3.9,3.9,0,0,0,.38-1h3.14Z"/><path d="M1578.7,1343.32a6.23,6.23,0,0,1,3.81.93,3.82,3.82,0,0,1,1.25,3.21,6.27,6.27,0,0,1-.46,2.5,4.83,4.83,0,0,1-1.3,1.83,7.3,7.3,0,0,1-4.84,1.41,5.78,5.78,0,0,1-3.87-1A4,4,0,0,1,1572,1349a5.72,5.72,0,0,1,.59-2.6,5.08,5.08,0,0,1,1.68-1.94A7.82,7.82,0,0,1,1578.7,1343.32Zm-1.5,8.39a1.17,1.17,0,0,0,1-.62,5,5,0,0,0,.65-1.51,14.24,14.24,0,0,0,.36-1.84,15.44,15.44,0,0,0,.12-1.67,2.94,2.94,0,0,0-.12-.93.5.5,0,0,0-.51-.32,1.24,1.24,0,0,0-1,.64,6,6,0,0,0-.69,1.52,11.11,11.11,0,0,0-.39,1.8,12.63,12.63,0,0,0-.12,1.5C1576.43,1351.23,1576.69,1351.71,1577.2,1351.71Z"/><path d="M1590.32,1345a6.51,6.51,0,0,1,1-.82,8.9,8.9,0,0,1,1.21-.57,4.27,4.27,0,0,1,1.58-.27,2.26,2.26,0,0,1,1.58.49,1.8,1.8,0,0,1,.58,1.19h.13a8.2,8.2,0,0,1,1.1-.84,8.66,8.66,0,0,1,1.19-.57,4,4,0,0,1,1.45-.27,2.73,2.73,0,0,1,1.86.63,2.05,2.05,0,0,1,.72,1.62,7.57,7.57,0,0,1-.18,1.34c-.12.56-.25,1.17-.4,1.83l-.92,4.29h-4.33l1.18-5.75c0-.22.09-.43.14-.63a3,3,0,0,0,.06-.51.87.87,0,0,0-.17-.52.66.66,0,0,0-.51-.21,1.17,1.17,0,0,0-.78.3,6.66,6.66,0,0,0-.56.5l-1.43,6.82h-4.12l1.21-5.75a3.11,3.11,0,0,1,.11-.58,2.5,2.5,0,0,0,.07-.54,1,1,0,0,0-.16-.54.64.64,0,0,0-.5-.21,1.23,1.23,0,0,0-.76.29,4.37,4.37,0,0,0-.56.49l-1.45,6.84h-4.49l2-9.46h3.59l.39,1.41Z"/><path d="M1602.72,1353l7.68-14h2l-7.43,14Z"/><path d="M1615.68,1352.21a6,6,0,0,1-1,2.43A4.72,4.72,0,0,1,1613,1356a6.07,6.07,0,0,1-2,.59,17,17,0,0,1-2.14.13l.26-1.52a3.05,3.05,0,0,0,.6-.06,1.05,1.05,0,0,0,.5-.29,1.93,1.93,0,0,0,.41-.65,6.81,6.81,0,0,0,.34-1.17l2-9.46h4.51Zm2.38-11.52a1.67,1.67,0,0,1-.21.87,2,2,0,0,1-.55.64,2.31,2.31,0,0,1-.78.4,3.06,3.06,0,0,1-.9.13,2.5,2.5,0,0,1-1.48-.42,1.51,1.51,0,0,1-.59-1.32,1.83,1.83,0,0,1,.73-1.5,2.38,2.38,0,0,1,.8-.39,3.26,3.26,0,0,1,.93-.13,2.41,2.41,0,0,1,1.45.42A1.47,1.47,0,0,1,1618.06,1340.69Z"/><path d="M1619.29,1344.38a9.8,9.8,0,0,1,2.3-.8,12.22,12.22,0,0,1,2.63-.26,10.76,10.76,0,0,1,2.33.22,4,4,0,0,1,1.47.64,2.17,2.17,0,0,1,.77,1,3.63,3.63,0,0,1,.22,1.3v.9a4.22,4.22,0,0,1-.12.82l-1,4.84h-3.54l-.39-1.41h-.14a5.05,5.05,0,0,1-1.64,1.18,4.53,4.53,0,0,1-1.85.4,3.37,3.37,0,0,1-1-.15,2.77,2.77,0,0,1-.9-.47,2.43,2.43,0,0,1-.64-.82,2.77,2.77,0,0,1-.24-1.2,2.56,2.56,0,0,1,.63-1.81,3.7,3.7,0,0,1,1.65-1,9.06,9.06,0,0,1,2.31-.43c.85-.06,1.72-.09,2.58-.09,0-.15.07-.36.11-.63a4.17,4.17,0,0,0,.07-.71,1.38,1.38,0,0,0-.21-.74.94.94,0,0,0-.87-.34,1.34,1.34,0,0,0-1.13.45,2.33,2.33,0,0,0-.48,1.09H1619Zm5.06,3.87h-.4a3.11,3.11,0,0,0-1.09.17,2,2,0,0,0-.72.43,1.53,1.53,0,0,0-.41.59,1.65,1.65,0,0,0-.13.66,1,1,0,0,0,.27.79.93.93,0,0,0,.65.27,1.54,1.54,0,0,0,.92-.33,1.44,1.44,0,0,0,.56-.88Z"/><path d="M1639.62,1352.5a9.4,9.4,0,0,1-1.95.54,15,15,0,0,1-2.32.16,8.72,8.72,0,0,1-2.1-.23,4.44,4.44,0,0,1-1.66-.74,3.38,3.38,0,0,1-1.1-1.3,4.32,4.32,0,0,1-.4-2,6.14,6.14,0,0,1,.41-2.21,4.91,4.91,0,0,1,1.23-1.79,5.66,5.66,0,0,1,2.1-1.21,9,9,0,0,1,3-.45,11.52,11.52,0,0,1,2.48.24,3,3,0,0,1,1.74,1l-.62,2.82h-3V1346a2.29,2.29,0,0,0-.16-1,.53.53,0,0,0-.5-.3,1.32,1.32,0,0,0-1.08.61,5,5,0,0,0-.76,1.45,9.85,9.85,0,0,0-.44,1.78,12.19,12.19,0,0,0-.14,1.59v.5a1.52,1.52,0,0,0,.1.47.84.84,0,0,0,.21.35.47.47,0,0,0,.37.14,1.29,1.29,0,0,0,.51-.14,1.81,1.81,0,0,0,.55-.4,3.8,3.8,0,0,0,.88-1.77h3.14Z"/><path d="M1646.74,1347.57l5.13-4h2.9l-4.37,3.58,3.27,5.88h-4.92l-2.25-4.43-.92,4.43h-4.49l3.12-14.79h4.51Z"/><path d="M1660,1343.57l.66,6.46,3.48-6.46h2.33l-5.3,9.46a9.05,9.05,0,0,1-1.61,2.13,5.17,5.17,0,0,1-1.77,1.1,7.24,7.24,0,0,1-2.11.41h-2.63l.33-1.52h1.35a4.22,4.22,0,0,0,1-.13,1.2,1.2,0,0,0,.73-.47,1.93,1.93,0,0,0,.22-1,8.42,8.42,0,0,0-.08-1,11.54,11.54,0,0,0-.16-1.21l-1.08-7.78Z"/><path d="M1666.61,1343.57h4.66l.77,6.46,2.67-6.46h4.2l.75,6.46,2.66-6.46h2.33l-4.38,9.46h-4.6l-.81-4.8-2.22,4.8H1668Z"/><path d="M1685.73,1344.38a9.8,9.8,0,0,1,2.3-.8,12.22,12.22,0,0,1,2.63-.26,10.76,10.76,0,0,1,2.33.22,4,4,0,0,1,1.47.64,2.17,2.17,0,0,1,.77,1,3.63,3.63,0,0,1,.22,1.3v.9a4.22,4.22,0,0,1-.12.82l-1,4.84h-3.54l-.4-1.41h-.13a5.05,5.05,0,0,1-1.64,1.18,4.61,4.61,0,0,1-1.86.4,3.37,3.37,0,0,1-1-.15,2.77,2.77,0,0,1-.9-.47,2.34,2.34,0,0,1-.64-.82,2.77,2.77,0,0,1-.24-1.2,2.56,2.56,0,0,1,.63-1.81,3.7,3.7,0,0,1,1.65-1,9.06,9.06,0,0,1,2.31-.43c.85-.06,1.72-.09,2.58-.09,0-.15.07-.36.11-.63a5.51,5.51,0,0,0,.07-.71,1.38,1.38,0,0,0-.21-.74.94.94,0,0,0-.87-.34,1.34,1.34,0,0,0-1.13.45,2.33,2.33,0,0,0-.48,1.09h-3.21Zm5.06,3.87h-.4a3.11,3.11,0,0,0-1.09.17,2,2,0,0,0-.72.43,1.53,1.53,0,0,0-.41.59,1.65,1.65,0,0,0-.13.66,1,1,0,0,0,.27.79.93.93,0,0,0,.65.27,1.54,1.54,0,0,0,.92-.33,1.44,1.44,0,0,0,.56-.88Z"/><path d="M1702.18,1345a7.15,7.15,0,0,1,1-.82,8.66,8.66,0,0,1,1.19-.57,3.88,3.88,0,0,1,1.51-.27,3,3,0,0,1,1.9.59,1.92,1.92,0,0,1,.74,1.59,4.14,4.14,0,0,1-.06.7,4.42,4.42,0,0,1-.16.84l-.18.89c-.06.3-.12.57-.17.81l-.92,4.29h-4.47l1.21-5.75a3.11,3.11,0,0,1,.11-.58,2,2,0,0,0,.07-.54.83.83,0,0,0-.17-.54.58.58,0,0,0-.49-.21,1.23,1.23,0,0,0-.76.29,4.37,4.37,0,0,0-.56.49l-1.45,6.84H1696l2-9.46h3.59l.39,1.41Z"/><path d="M1718.16,1343.57h3.56l-1.8,8.55a6.69,6.69,0,0,1-.66,1.83,4.49,4.49,0,0,1-1.29,1.45,6.12,6.12,0,0,1-2.07,1,11.24,11.24,0,0,1-3,.35h-2.67l-.7,0,.42-1.58a11.65,11.65,0,0,0,1.44.12h1.26a4.23,4.23,0,0,0,1.12-.12,1.76,1.76,0,0,0,.74-.39,2,2,0,0,0,.49-.7,5.07,5.07,0,0,0,.29-1.08l.27-1.43h-.16a3.48,3.48,0,0,1-.38.48,3,3,0,0,1-.65.52,3.9,3.9,0,0,1-.93.42,4.25,4.25,0,0,1-1.23.17,3.45,3.45,0,0,1-1.31-.23,2.26,2.26,0,0,1-.86-.64,2.67,2.67,0,0,1-.49-1,5,5,0,0,1-.15-1.22v-.88a10.12,10.12,0,0,1,.69-2.87,5.44,5.44,0,0,1,.86-1.42,4.31,4.31,0,0,1,1.34-1.06,4.19,4.19,0,0,1,2-.42,6.48,6.48,0,0,1,.77.07,3.86,3.86,0,0,1,.82.24,2.33,2.33,0,0,1,.7.51,2.22,2.22,0,0,1,.48.86h.14Zm-2.47,1.91a1,1,0,0,0-.88.56,5.65,5.65,0,0,0-.57,1.31,11,11,0,0,0-.32,1.49,7.89,7.89,0,0,0-.1,1.09,1.67,1.67,0,0,0,.14.73.52.52,0,0,0,.52.3.92.92,0,0,0,.43-.11,3.34,3.34,0,0,0,.4-.25l.33-.3.21-.24.81-3.85a3.8,3.8,0,0,0-.41-.49.74.74,0,0,0-.56-.24Z"/><path d="M1733.25,1342.09h-6.36l-.37,1.89a6.4,6.4,0,0,1,1.11-.4,5.36,5.36,0,0,1,1.44-.17,5.7,5.7,0,0,1,2.2.38,3.75,3.75,0,0,1,2.19,2.37,5.17,5.17,0,0,1,.23,1.51,5.09,5.09,0,0,1-.5,2.2,5.36,5.36,0,0,1-1.41,1.76,6.34,6.34,0,0,1-2.23,1.16,9.51,9.51,0,0,1-3,.42,10.14,10.14,0,0,1-1.23-.07,5.79,5.79,0,0,1-1.16-.29,6.32,6.32,0,0,1-2.27-1.49l.64-3H1726a2.37,2.37,0,0,1-.06.57c0,.26,0,.51,0,.77a3.11,3.11,0,0,0,.29,1.56.9.9,0,0,0,.81.46,1.26,1.26,0,0,0,1-.42,3.11,3.11,0,0,0,.64-1,6.39,6.39,0,0,0,.35-1.35,8.94,8.94,0,0,0,.11-1.37,4.76,4.76,0,0,0-.07-.84,2.31,2.31,0,0,0-.22-.72,1.29,1.29,0,0,0-.41-.49,1.11,1.11,0,0,0-.66-.19,1.77,1.77,0,0,0-.84.24,2.52,2.52,0,0,0-.86,1h-2.7l1.58-7.37h9Z"/><path d="M1734.7,1350.87a19.05,19.05,0,0,0,3-1.22,11.9,11.9,0,0,0,2.55-1.78,8.23,8.23,0,0,0,1.79-2.43,7.32,7.32,0,0,0,.67-3.19,4.56,4.56,0,0,0-.17-1.37.64.64,0,0,0-.62-.48,1,1,0,0,0-.74.37,3.94,3.94,0,0,0-.61,1,9.9,9.9,0,0,0-.51,1.27c-.15.47-.28.93-.38,1.37h-4l.72-3.3a9.93,9.93,0,0,1,2.6-1.64,7.74,7.74,0,0,1,3.08-.58,8.42,8.42,0,0,1,2,.24,4.51,4.51,0,0,1,1.63.76,3.73,3.73,0,0,1,1.1,1.3,4,4,0,0,1,.4,1.85,4.9,4.9,0,0,1-.27,1.61,5.52,5.52,0,0,1-1,1.64,12.46,12.46,0,0,1-1.87,1.76,27.44,27.44,0,0,1-3,2H1746l-.45,3.06h-11.33Z"/><path d="M1752.52,1353.2h-1a8.87,8.87,0,0,1-1.23-.13c-.42-.07-.84-.16-1.25-.27a4.88,4.88,0,0,1-1.06-.42l.72-3.08h3.39v.9a4.86,4.86,0,0,0,0,.54,2.68,2.68,0,0,0,.11.49.74.74,0,0,0,.24.36.61.61,0,0,0,.43.15c.49,0,1-.41,1.45-1.22a11.67,11.67,0,0,0,1.17-4h-.22a4.17,4.17,0,0,1-1.56,1.06,5.22,5.22,0,0,1-1.91.36,3.72,3.72,0,0,1-1.47-.27,2.67,2.67,0,0,1-1-.76,3.24,3.24,0,0,1-.56-1.15,6,6,0,0,1-.18-1.47,5.58,5.58,0,0,1,.52-2.48,4.81,4.81,0,0,1,1.4-1.7,6.07,6.07,0,0,1,2.06-1,10.41,10.41,0,0,1,2.49-.3,8.21,8.21,0,0,1,2.21.27,4.08,4.08,0,0,1,2.86,2.65,7.46,7.46,0,0,1,.41,2.69,11.56,11.56,0,0,1-.45,3.2,8,8,0,0,1-1.43,2.8,7.18,7.18,0,0,1-2.51,2A8.13,8.13,0,0,1,1752.52,1353.2Zm2.81-12.85a1.17,1.17,0,0,0-.93.47,3.84,3.84,0,0,0-.64,1.13,7.06,7.06,0,0,0-.36,1.44,10.25,10.25,0,0,0-.11,1.36,2.21,2.21,0,0,0,.12.81c.08.18.27.27.56.27a1.29,1.29,0,0,0,1-.47,4.23,4.23,0,0,0,.69-1.13,8.33,8.33,0,0,0,.39-1.38,7,7,0,0,0,.13-1.2,2,2,0,0,0-.19-.93.72.72,0,0,0-.66-.37Z"/><path d="M1760.31,1353l7.68-14h2l-7.44,14Z"/><path d="M1774.39,1345a7.15,7.15,0,0,1,1-.82,8.9,8.9,0,0,1,1.21-.57,4.33,4.33,0,0,1,1.59-.27,2.22,2.22,0,0,1,1.57.49,1.8,1.8,0,0,1,.58,1.19h.13a8.2,8.2,0,0,1,1.1-.84,8.66,8.66,0,0,1,1.19-.57,4,4,0,0,1,1.45-.27,2.68,2.68,0,0,1,1.86.63,2.05,2.05,0,0,1,.72,1.62,6.75,6.75,0,0,1-.18,1.34l-.39,1.83-.93,4.29H1781l1.19-5.75a2.61,2.61,0,0,1,.13-.63,2.22,2.22,0,0,0,.06-.51.76.76,0,0,0-.17-.52.66.66,0,0,0-.51-.21,1.19,1.19,0,0,0-.78.3,6.66,6.66,0,0,0-.56.5l-1.43,6.82h-4.11l1.21-5.75a3.71,3.71,0,0,1,.11-.58,2.48,2.48,0,0,0,.06-.54.88.88,0,0,0-.16-.54.59.59,0,0,0-.5-.21,1.23,1.23,0,0,0-.76.29,4.37,4.37,0,0,0-.56.49l-1.45,6.84h-4.49l2-9.46h3.59l.4,1.41Z"/><path d="M1791.68,1353h-4.47l2-9.46h4.51Zm2.62-12.34a1.67,1.67,0,0,1-.21.87,2,2,0,0,1-.55.64,2.31,2.31,0,0,1-.78.4,3.06,3.06,0,0,1-.9.13,2.5,2.5,0,0,1-1.48-.42,1.51,1.51,0,0,1-.59-1.32,1.83,1.83,0,0,1,.73-1.5,2.38,2.38,0,0,1,.8-.39,3.26,3.26,0,0,1,.93-.13,2.41,2.41,0,0,1,1.45.42,1.48,1.48,0,0,1,.6,1.33Z"/><path d="M1803.65,1352.5a8.57,8.57,0,0,1-2,.54,15,15,0,0,1-2.32.16,8.72,8.72,0,0,1-2.1-.23,4.44,4.44,0,0,1-1.66-.74,3.38,3.38,0,0,1-1.1-1.3,4.32,4.32,0,0,1-.4-2,6.14,6.14,0,0,1,.41-2.21,4.91,4.91,0,0,1,1.23-1.79,5.66,5.66,0,0,1,2.1-1.21,9,9,0,0,1,3-.45,11.52,11.52,0,0,1,2.48.24,3,3,0,0,1,1.74,1l-.61,2.82h-3V1346a2.44,2.44,0,0,0-.15-1,.55.55,0,0,0-.51-.3,1.32,1.32,0,0,0-1.08.61,5,5,0,0,0-.76,1.45,9.85,9.85,0,0,0-.44,1.78,12.19,12.19,0,0,0-.14,1.59v.5a2.46,2.46,0,0,0,.1.47.84.84,0,0,0,.21.35.47.47,0,0,0,.37.14,1.29,1.29,0,0,0,.51-.14,1.81,1.81,0,0,0,.55-.4,3.61,3.61,0,0,0,.51-.72,3.87,3.87,0,0,0,.37-1h3.15Z"/><path d="M1811.33,1345h.15a5.38,5.38,0,0,1,1-.78,6.65,6.65,0,0,1,1.1-.55,3.87,3.87,0,0,1,1.43-.24,3,3,0,0,1,1.89.59,1.91,1.91,0,0,1,.75,1.59,3.23,3.23,0,0,1-.07.69,4.32,4.32,0,0,1-.15.82c-.06.29-.12.57-.19.86s-.12.54-.16.78l-.93,4.29h-4.46l1.21-5.75a3.71,3.71,0,0,1,.11-.58,2.48,2.48,0,0,0,.06-.54.88.88,0,0,0-.16-.54.59.59,0,0,0-.5-.21,1.23,1.23,0,0,0-.76.29,3.85,3.85,0,0,0-.56.51l-1.45,6.82h-4.49l3.13-14.79h4.51Z"/><path d="M1823,1348.6a7.4,7.4,0,0,0-.12.93v.79a3.23,3.23,0,0,0,0,.44,1.73,1.73,0,0,0,.1.45.87.87,0,0,0,.22.35.54.54,0,0,0,.4.15,1,1,0,0,0,.45-.14,2.08,2.08,0,0,0,.51-.37,3.87,3.87,0,0,0,.48-.59,3.06,3.06,0,0,0,.37-.8H1829l-.58,2.36a4.6,4.6,0,0,1-1,.48,8.28,8.28,0,0,1-1.21.32c-.42.08-.86.14-1.3.18s-.86,0-1.25,0a9.62,9.62,0,0,1-2-.2,4.35,4.35,0,0,1-1.65-.68,3.51,3.51,0,0,1-1.11-1.28,4.45,4.45,0,0,1-.4-2,6.57,6.57,0,0,1,.34-2.11,4.39,4.39,0,0,1,1.14-1.83,5.54,5.54,0,0,1,2.16-1.29,10.16,10.16,0,0,1,3.37-.49,6.32,6.32,0,0,1,3.31.69,2.34,2.34,0,0,1,1.12,2.13,5.08,5.08,0,0,1-.18,1.29,3.35,3.35,0,0,1-.53,1.17Zm3-2.6a1.45,1.45,0,0,0-.22-.93.71.71,0,0,0-.53-.24,1,1,0,0,0-.65.23,2.3,2.3,0,0,0-.54.62,5.56,5.56,0,0,0-.44.88,9,9,0,0,0-.33,1h2.51a3.93,3.93,0,0,1,.09-.55c0-.19,0-.33.07-.52A4.81,4.81,0,0,0,1826,1346Z"/><path d="M1834.54,1353h-4.49l3.12-14.79h4.51Z"/><path d="M1841,1353h-4.47l2-9.46H1843Zm2.62-12.34a1.67,1.67,0,0,1-.21.87,2,2,0,0,1-.55.64,2.31,2.31,0,0,1-.78.4,3.06,3.06,0,0,1-.9.13,2.5,2.5,0,0,1-1.48-.42,1.51,1.51,0,0,1-.59-1.32,1.83,1.83,0,0,1,.73-1.5,2.38,2.38,0,0,1,.8-.39,3.26,3.26,0,0,1,.93-.13,2.41,2.41,0,0,1,1.45.42,1.46,1.46,0,0,1,.56,1.33Z"/><path d="M1849.06,1345a6.51,6.51,0,0,1,1-.82,8.66,8.66,0,0,1,1.19-.57,3.93,3.93,0,0,1,1.52-.27,3.05,3.05,0,0,1,1.89.59,1.93,1.93,0,0,1,.75,1.59,5.53,5.53,0,0,1-.07.7,5.32,5.32,0,0,1-.15.84c0,.29-.13.59-.19.89s-.12.57-.17.81l-.92,4.29h-4.47l1.21-5.75a3.11,3.11,0,0,1,.11-.58,2,2,0,0,0,.07-.54.88.88,0,0,0-.16-.54.62.62,0,0,0-.5-.21,1.23,1.23,0,0,0-.76.29,4.37,4.37,0,0,0-.56.49l-1.45,6.84h-4.49l2-9.46h3.59l.39,1.41Z"/><path d="M1857.15,1347.39h6.93l-.44,2h-7Z"/><path d="M1867,1343.57h3.59l.33,1.65h.15a4.78,4.78,0,0,1,1.3-1.35,3.67,3.67,0,0,1,2.09-.55h.28a2.7,2.7,0,0,1,.41.06,2.81,2.81,0,0,1,.49.16,1.8,1.8,0,0,1,.49.27l-1,4.53h-2.4a6.79,6.79,0,0,0-.24-1.9c-.14-.36-.35-.54-.64-.54a1.29,1.29,0,0,0-.48.1,1.42,1.42,0,0,0-.51.43l-1.41,6.58H1865Z"/><path d="M1880.6,1348.6a7.4,7.4,0,0,0-.12.93v1.23a2.42,2.42,0,0,0,.1.45,1,1,0,0,0,.22.35.53.53,0,0,0,.41.15,1,1,0,0,0,.45-.14,1.67,1.67,0,0,0,.5-.37,3.94,3.94,0,0,0,.49-.59,3,3,0,0,0,.36-.8h3.61l-.57,2.36a4.6,4.6,0,0,1-1,.48,10.27,10.27,0,0,1-1.21.32c-.43.08-.86.14-1.3.18s-.86,0-1.26,0a9.62,9.62,0,0,1-2-.2,4.35,4.35,0,0,1-1.65-.68,3.42,3.42,0,0,1-1.11-1.28,4.18,4.18,0,0,1-.41-2,6.57,6.57,0,0,1,.34-2.11,4.6,4.6,0,0,1,1.14-1.83,5.54,5.54,0,0,1,2.16-1.29,10.18,10.18,0,0,1,3.38-.49,6.42,6.42,0,0,1,3.31.69,2.31,2.31,0,0,1,1.11,2.13,5.57,5.57,0,0,1-.18,1.29,3.33,3.33,0,0,1-.52,1.17Zm2.93-2.61a1.38,1.38,0,0,0-.22-.93.71.71,0,0,0-.53-.24,1,1,0,0,0-.65.23,2.3,2.3,0,0,0-.54.62,5.56,5.56,0,0,0-.44.88,9,9,0,0,0-.33,1h2.51a3.93,3.93,0,0,1,.09-.55,1.88,1.88,0,0,1,.08-.52,3.87,3.87,0,0,0,0-.48Z"/><path d="M1894.6,1346.34v-.22a1,1,0,0,0,0-.24,2.11,2.11,0,0,0-.14-.74.56.56,0,0,0-.56-.34,1.16,1.16,0,0,0-.75.32,1,1,0,0,0-.37.85.82.82,0,0,0,.18.56,1.43,1.43,0,0,0,.5.34,5.05,5.05,0,0,0,.69.22l.76.17a8.94,8.94,0,0,1,1,.32,3.17,3.17,0,0,1,.85.5,2.3,2.3,0,0,1,.59.76,2.51,2.51,0,0,1,.22,1.11,2.66,2.66,0,0,1-.43,1.55,3,3,0,0,1-1.19,1,5.56,5.56,0,0,1-1.78.54,16.12,16.12,0,0,1-2.19.15,13.8,13.8,0,0,1-2.94-.26,7.71,7.71,0,0,1-1.63-.51l.46-2.2h3a.74.74,0,0,0,0,.21v.21a1.27,1.27,0,0,0,.23.8,1,1,0,0,0,.8.3,1.1,1.1,0,0,0,.92-.36,1.17,1.17,0,0,0,.27-.67.74.74,0,0,0-.23-.54,2.07,2.07,0,0,0-.58-.4,5.71,5.71,0,0,0-.79-.28l-.82-.23a3.87,3.87,0,0,1-.65-.23,2.38,2.38,0,0,1-.69-.44,2.2,2.2,0,0,1-.55-.73,2.5,2.5,0,0,1-.22-1.14,2.71,2.71,0,0,1,.47-1.61,3.62,3.62,0,0,1,1.23-1,6.44,6.44,0,0,1,1.72-.57,10.32,10.32,0,0,1,1.92-.18,11.69,11.69,0,0,1,2.29.22,6.86,6.86,0,0,1,1.76.58l-.5,2.22Z"/><path d="M1899.39,1343.57a12.16,12.16,0,0,0,1.43-.4,5.63,5.63,0,0,0,1.13-.55,5.54,5.54,0,0,0,1-.81c.35-.38.69-.78,1-1.19h2.26l-.64,3h1.72L1907,1345h-1.74l-.91,4.29c-.07.34-.13.64-.17.9a4.36,4.36,0,0,0-.07.62.52.52,0,0,0,.32.55,4.4,4.4,0,0,0,1.2.11l-.33,1.52a1.84,1.84,0,0,1-.47.06l-.71.06h-1.5a7.83,7.83,0,0,1-1.08-.07,3.15,3.15,0,0,1-1-.31,1.8,1.8,0,0,1-.67-.67,2.45,2.45,0,0,1-.25-1.19v-.66a6.45,6.45,0,0,1,.14-.88l.93-4.38H1899Z"/><path d="M1908.59,1344.38a9.8,9.8,0,0,1,2.3-.8,12.13,12.13,0,0,1,2.62-.26,10.79,10.79,0,0,1,2.34.22,4,4,0,0,1,1.47.64,2.24,2.24,0,0,1,.77,1,3.63,3.63,0,0,1,.22,1.3v.9a3.52,3.52,0,0,1-.13.82l-1,4.84h-3.54l-.4-1.41H1913a5.05,5.05,0,0,1-1.64,1.18,4.61,4.61,0,0,1-1.86.4,3.37,3.37,0,0,1-1-.15,2.77,2.77,0,0,1-.9-.47,2.34,2.34,0,0,1-.64-.82,2.77,2.77,0,0,1-.24-1.2,2.6,2.6,0,0,1,.62-1.81,3.85,3.85,0,0,1,1.65-1,9.61,9.61,0,0,1,2.31-.43c.86-.06,1.72-.09,2.59-.09,0-.15.07-.36.11-.63a4.17,4.17,0,0,0,.06-.71,1.29,1.29,0,0,0-.2-.74.94.94,0,0,0-.87-.34,1.4,1.4,0,0,0-1.14.45,2.32,2.32,0,0,0-.47,1.09h-3.21Zm5.06,3.87h-.4a3.11,3.11,0,0,0-1.09.17,2,2,0,0,0-.72.43,1.53,1.53,0,0,0-.41.59,1.65,1.65,0,0,0-.13.66,1,1,0,0,0,.27.79.93.93,0,0,0,.65.27,1.51,1.51,0,0,0,.91-.33,1.44,1.44,0,0,0,.56-.88Z"/><path d="M1927.35,1343.57h4.49l-2,9.46h-3.57l-.39-1.41h-.14a4.43,4.43,0,0,1-1.55,1.13,4.64,4.64,0,0,1-2,.45,2.91,2.91,0,0,1-2.06-.67,2.23,2.23,0,0,1-.75-1.75,6.37,6.37,0,0,1,.19-1.37c.12-.55.23-1.07.34-1.55l.92-4.29h4.47l-1.1,5.15a3.13,3.13,0,0,1-.09.41l-.09.48a.84.84,0,0,1-.08.44,1.93,1.93,0,0,0,0,.34,1.08,1.08,0,0,0,.14.56.58.58,0,0,0,.52.23,1.21,1.21,0,0,0,.75-.27,2.89,2.89,0,0,0,.55-.5Z"/><path d="M1933.8,1343.57h3.58l.33,1.65h.16a4.78,4.78,0,0,1,1.3-1.35,3.65,3.65,0,0,1,2.09-.55h.27a3,3,0,0,1,.42.06,4.5,4.5,0,0,1,.48.16,1.86,1.86,0,0,1,.5.27l-1,4.53h-2.4a6.79,6.79,0,0,0-.24-1.9c-.13-.36-.34-.54-.64-.54a1.28,1.28,0,0,0-.47.1,1.45,1.45,0,0,0-.52.43l-1.41,6.58h-4.48Z"/><path d="M1944.23,1344.38a9.8,9.8,0,0,1,2.3-.8,12.13,12.13,0,0,1,2.62-.26,10.79,10.79,0,0,1,2.34.22,4,4,0,0,1,1.47.64,2.24,2.24,0,0,1,.77,1,3.63,3.63,0,0,1,.22,1.3v.9a3.52,3.52,0,0,1-.13.82l-1,4.84h-3.54l-.4-1.41h-.13a5.05,5.05,0,0,1-1.64,1.18,4.61,4.61,0,0,1-1.86.4,3.37,3.37,0,0,1-1-.15,2.77,2.77,0,0,1-.9-.47,2.34,2.34,0,0,1-.64-.82,2.77,2.77,0,0,1-.24-1.2,2.6,2.6,0,0,1,.62-1.81,3.85,3.85,0,0,1,1.65-1,9.52,9.52,0,0,1,2.31-.43c.86-.06,1.72-.09,2.59-.09a4.66,4.66,0,0,1,.11-.63,4.17,4.17,0,0,0,.06-.71,1.47,1.47,0,0,0-.2-.74.94.94,0,0,0-.87-.34,1.4,1.4,0,0,0-1.14.45,2.32,2.32,0,0,0-.47,1.09h-3.21Zm5.06,3.87h-.4a3.11,3.11,0,0,0-1.09.17,2,2,0,0,0-.72.43,1.53,1.53,0,0,0-.41.59,1.65,1.65,0,0,0-.13.66,1,1,0,0,0,.27.79.93.93,0,0,0,.65.27,1.51,1.51,0,0,0,.91-.33,1.44,1.44,0,0,0,.56-.88Z"/><path d="M1960.68,1345a6.51,6.51,0,0,1,1-.82,8.55,8.55,0,0,1,1.18-.57,4,4,0,0,1,1.52-.27,3,3,0,0,1,1.89.59,1.93,1.93,0,0,1,.75,1.59,4.14,4.14,0,0,1-.06.7,4.42,4.42,0,0,1-.16.84l-.18.89c-.07.3-.13.57-.17.81l-.92,4.29h-4.47l1.21-5.75a3.11,3.11,0,0,1,.11-.58,3.33,3.33,0,0,0,.07-.54.83.83,0,0,0-.17-.54.58.58,0,0,0-.49-.21,1.23,1.23,0,0,0-.76.29,4.37,4.37,0,0,0-.56.49l-1.46,6.84h-4.48l2-9.46h3.58l.4,1.41Z"/><path d="M1968.58,1343.57a12.16,12.16,0,0,0,1.43-.4,5.63,5.63,0,0,0,1.13-.55,5.54,5.54,0,0,0,1-.81c.35-.38.69-.78,1-1.19h2.26l-.64,3h1.72l-.29,1.47h-1.73l-.91,4.29c-.07.34-.13.64-.17.9a3.18,3.18,0,0,0-.07.62.52.52,0,0,0,.32.55,4.4,4.4,0,0,0,1.2.11l-.33,1.52a1.84,1.84,0,0,1-.47.06l-.71.06h-1.5a7.83,7.83,0,0,1-1.08-.07,3.15,3.15,0,0,1-1-.31,1.8,1.8,0,0,1-.67-.67,2.45,2.45,0,0,1-.25-1.19v-.66a6.45,6.45,0,0,1,.14-.88l.93-4.38h-1.72Z"/><path d="M1983,1346.34v-.22a1,1,0,0,0,0-.24,2.11,2.11,0,0,0-.14-.74.56.56,0,0,0-.56-.34,1.16,1.16,0,0,0-.75.32,1,1,0,0,0-.37.85.82.82,0,0,0,.18.56,1.43,1.43,0,0,0,.5.34,5.05,5.05,0,0,0,.69.22l.76.17a8.94,8.94,0,0,1,1,.32,3.17,3.17,0,0,1,.85.5,2.11,2.11,0,0,1,.59.76,2.51,2.51,0,0,1,.22,1.11,2.66,2.66,0,0,1-.43,1.55,3.09,3.09,0,0,1-1.18,1,5.62,5.62,0,0,1-1.79.54,16.12,16.12,0,0,1-2.19.15,13.8,13.8,0,0,1-2.94-.26,7.71,7.71,0,0,1-1.63-.51l.46-2.2h3v.42a1.27,1.27,0,0,0,.23.8,1,1,0,0,0,.8.3,1.1,1.1,0,0,0,.92-.36,1.17,1.17,0,0,0,.27-.67.74.74,0,0,0-.23-.54,1.94,1.94,0,0,0-.58-.4,5.16,5.16,0,0,0-.78-.28l-.83-.23a3.87,3.87,0,0,1-.65-.23,2.38,2.38,0,0,1-.69-.44,2.2,2.2,0,0,1-.55-.73,2.5,2.5,0,0,1-.22-1.14,2.71,2.71,0,0,1,.47-1.61,3.62,3.62,0,0,1,1.23-1,6.44,6.44,0,0,1,1.72-.57,10.32,10.32,0,0,1,1.92-.18,11.69,11.69,0,0,1,2.29.22,6.86,6.86,0,0,1,1.76.58l-.5,2.22Z"/></g></g></g></svg>