<?xml version="1.0" encoding="utf-8"?>
<!-- Generator: Adobe Illustrator 23.0.1, SVG Export Plug-In . SVG Version: 6.00 Build 0)  -->
<svg version="1.1" id="hongkong_1_" xmlns="http://www.w3.org/2000/svg" xmlns:xlink="http://www.w3.org/1999/xlink" x="0px"
	 y="0px" viewBox="0 0 383.8 255.9" style="enable-background:new 0 0 383.8 255.9;" xml:space="preserve">
<style type="text/css">
	.st0{fill:#DE2910;}
	.st1{fill:#FFFFFF;}
</style>
<title>Asset 3</title>
<g>
	<g id="Layer_1-2">
		<g id="hongkong">
			<rect class="st0" width="383.8" height="255.9"/>
			<g id="petal">
				<path class="st1" d="M191.9,127.9c-44.9-19-25-77.4,17.9-74.5c-8.7,4.5-9.9,12.8-5,20.5c5.6,8.6-0.5,22.5-8,25.9
					C184.5,105.4,182,120.2,191.9,127.9z"/>
				<path class="st0" d="M189.4,85.7l-2.5,4l-0.9-4.6l-4.6-1.2l4.1-2.3l-0.3-4.7l3.4,3.2l4.4-1.7l-2,4.3l3,3.6L189.4,85.7z"/>
				<path class="st0" d="M192.1,127.5c-5.4-2.8-9.8-8.6-11.7-15.5c-2.2-8-0.9-16.5,3.5-23.5l-0.9-0.6c-4.5,7.3-5.8,16.1-3.6,24.4
					c2,7.3,6.5,13.3,12.3,16.2L192.1,127.5z"/>
			</g>
			<path class="st1" d="M191.9,127.9c4.2-48.5,65.9-47.7,76.4-6c-6.9-6.9-15.2-5.5-21,1.6c-6.5,8-21.6,6.5-27.1,0.4
				C211.1,113.9,196.2,116.2,191.9,127.9L191.9,127.9z"/>
			<path class="st0" d="M231.3,112.6l-4.6-1.2l4.1-2.3l-0.3-4.7l3.5,3.2l4.4-1.7l-2,4.3l3,3.6l-4.7-0.5l-2.5,4L231.3,112.6z"/>
			<path class="st0" d="M192.5,128c1-6,5.1-12,11.2-15.9c6.9-4.5,15.4-6,23.4-4l0.3-1.1c-8.3-2.1-17.1-0.6-24.3,4.1
				c-6.4,4.2-10.6,10.3-11.6,16.7L192.5,128z"/>
			<path class="st1" d="M191.9,128c47.5-11,65.7,48,29.3,70.8c4.4-8.7,0.5-16.2-8-19.5c-9.6-3.7-12.8-18.5-8.7-25.7
				C211.2,141.8,204.4,128.4,191.9,128z"/>
			<path class="st0" d="M218.7,160.7l-0.3-4.7l3.4,3.2l4.4-1.7l-2,4.3l3,3.6l-4.7-0.6l-2.5,4l-0.9-4.6l-4.6-1.2L218.7,160.7z"/>
			<path class="st0" d="M192,128.5c6-0.9,13,1.2,18.6,5.7c6.4,5.2,10.4,12.8,11,21l1.1-0.1c-0.6-8.5-4.7-16.4-11.4-21.8
				c-6-4.8-13-6.9-19.5-5.9L192,128.5z"/>
			<path class="st1" d="M191.9,128c25.2,41.7-25.3,77.3-58.3,49.7c9.7,1.5,15.6-4.5,16.1-13.7c0.6-10.2,13.7-17.9,21.7-16.2
				C184.6,150.6,195.4,140,191.9,128z"/>
			<path class="st0" d="M169,163.6l4.4-1.7l-2,4.3l3,3.6l-4.7-0.5l-2.5,4l-0.9-4.6l-4.6-1.2l4.1-2.3l-0.3-4.7L169,163.6z"/>
			<path class="st0" d="M191.4,128.2c2.8,5.4,2.9,12.7,0.3,19.5c-2.9,7.7-8.9,13.9-16.6,17l0.4,1c7.9-3.2,14.2-9.6,17.2-17.6
				c2.7-7.1,2.5-14.5-0.4-20.3L191.4,128.2z"/>
			<path class="st1" d="M191.8,128c-31.9,36.8-81.4-0.2-65.3-40.1c1.6,9.6,9.1,13.4,18,11.1c9.9-2.6,21.3,7.5,22.2,15.6
				C168.2,128,181.5,135,191.8,128z"/>
			<path class="st0" d="M150.9,117.2l3,3.6l-4.7-0.5l-2.5,4l-0.9-4.6l-4.6-1.2l4.1-2.3l-0.3-4.7l3.5,3.2l4.4-1.7L150.9,117.2z"/>
			<path class="st0" d="M191.4,127.6c-4.3,4.3-11.2,6.7-18.4,6.3c-8.2-0.4-15.9-4.2-21.2-10.5l-0.9,0.7c5.5,6.6,13.5,10.5,22.1,10.9
				c7.6,0.4,14.6-2.1,19.2-6.7L191.4,127.6z"/>
		</g>
	</g>
</g>
</svg>
