<svg xmlns="http://www.w3.org/2000/svg" viewBox="0 0 383.8 255.9"><defs><style>.cls-1{fill:#de2910;}.cls-2{fill:#fff;}</style></defs><title>Asset 3</title><g id="Layer_2" data-name="Layer 2"><g id="Layer_1-2" data-name="Layer 1"><g id="hongkong"><rect class="cls-1" width="383.8" height="255.9"/><g id="petal"><path class="cls-2" d="M191.9,127.9c-44.9-19-25-77.4,17.9-74.5-8.7,4.5-9.9,12.8-5,20.5,5.6,8.6-.5,22.5-8,25.9-12.3,5.6-14.8,20.4-4.9,28.1Z"/><path class="cls-1" d="M189.4,85.7l-2.5,4-.9-4.6-4.6-1.2,4.1-2.3-.3-4.7,3.4,3.2,4.4-1.7-2,4.3,3,3.6Z"/><path class="cls-1" d="M192.1,127.5c-5.4-2.8-9.8-8.6-11.7-15.5a29.44,29.44,0,0,1,3.5-23.5l-.9-.6a31.2,31.2,0,0,0-3.6,24.4c2,7.3,6.5,13.3,12.3,16.2Z"/></g><path class="cls-2" d="M191.9,127.9c4.2-48.5,65.9-47.7,76.4-6-6.9-6.9-15.2-5.5-21,1.6-6.5,8-21.6,6.5-27.1.4-9.1-10-24-7.7-28.3,4Z"/><path class="cls-1" d="M231.3,112.6l-4.6-1.2,4.1-2.3-.3-4.7,3.5,3.2,4.4-1.7-2,4.3,3,3.6-4.7-.5-2.5,4Z"/><path class="cls-1" d="M192.5,128c1-6,5.1-12,11.2-15.9a29.73,29.73,0,0,1,23.4-4l.3-1.1a30.68,30.68,0,0,0-24.3,4.1c-6.4,4.2-10.6,10.3-11.6,16.7Z"/><path class="cls-2" d="M191.9,128c47.5-11,65.7,48,29.3,70.8,4.4-8.7.5-16.2-8-19.5-9.6-3.7-12.8-18.5-8.7-25.7,6.7-11.8-.1-25.2-12.6-25.6Z"/><path class="cls-1" d="M218.7,160.7l-.3-4.7,3.4,3.2,4.4-1.7-2,4.3,3,3.6-4.7-.6-2.5,4-.9-4.6-4.6-1.2Z"/><path class="cls-1" d="M192,128.5c6-.9,13,1.2,18.6,5.7a29.91,29.91,0,0,1,11,21l1.1-.1a30.58,30.58,0,0,0-11.4-21.8c-6-4.8-13-6.9-19.5-5.9Z"/><path class="cls-2" d="M191.9,128c25.2,41.7-25.3,77.3-58.3,49.7,9.7,1.5,15.6-4.5,16.1-13.7.6-10.2,13.7-17.9,21.7-16.2,13.2,2.8,24-7.8,20.5-19.8Z"/><path class="cls-1" d="M169,163.6l4.4-1.7-2,4.3,3,3.6-4.7-.5-2.5,4-.9-4.6-4.6-1.2,4.1-2.3-.3-4.7Z"/><path class="cls-1" d="M191.4,128.2c2.8,5.4,2.9,12.7.3,19.5a29.55,29.55,0,0,1-16.6,17l.4,1a30.72,30.72,0,0,0,17.2-17.6c2.7-7.1,2.5-14.5-.4-20.3Z"/><path class="cls-2" d="M191.8,128c-31.9,36.8-81.4-.2-65.3-40.1,1.6,9.6,9.1,13.4,18,11.1,9.9-2.6,21.3,7.5,22.2,15.6,1.5,13.4,14.8,20.4,25.1,13.4Z"/><path class="cls-1" d="M150.9,117.2l3,3.6-4.7-.5-2.5,4-.9-4.6-4.6-1.2,4.1-2.3-.3-4.7,3.5,3.2,4.4-1.7Z"/><path class="cls-1" d="M191.4,127.6c-4.3,4.3-11.2,6.7-18.4,6.3a29.61,29.61,0,0,1-21.2-10.5l-.9.7A30.5,30.5,0,0,0,173,135c7.6.4,14.6-2.1,19.2-6.7Z"/></g></g></g></svg>