<svg xmlns="http://www.w3.org/2000/svg" viewBox="0 0 350.9 231.5"><defs><style>.cls-1{fill:#ce202d;}.cls-2{fill:#fff;}.cls-3{fill:#2a3376;}</style></defs><title>Asset 9</title><g id="Layer_2" data-name="Layer 2"><g id="Layer_1-2" data-name="Layer 1"><g id="uk"><rect class="cls-1" width="347.2" height="231.4"/><rect class="cls-2" width="156.8" height="94.2"/><rect class="cls-2" x="190.3" width="156.8" height="94.2"/><rect class="cls-2" x="190.3" y="138.8" width="156.8" height="92.7"/><rect class="cls-2" y="138.8" width="156.8" height="92.7"/><rect class="cls-3" width="144.6" height="77.4"/><rect class="cls-3" x="202.5" width="148.4" height="77.4"/><rect class="cls-3" x="202.5" y="154.1" width="144.6" height="77.4"/><rect class="cls-3" y="154.1" width="144.6" height="77.4"/><g id="top-left-2"><polygon class="cls-2" points="0 26.3 76.2 77.5 144.6 77.5 144.6 70.9 38.5 0 0 0 0 26.3"/><polygon class="cls-1" points="0 17.2 89.9 77.5 115.4 77.5 0 0 0 17.2"/></g><g id="top-right-2"><polygon class="cls-2" points="347.1 26.3 270.9 77.5 202.5 77.5 202.5 70.9 308.6 0 347.1 0 347.1 26.3"/><polygon class="cls-1" points="347.1 17.2 257.1 77.5 231.7 77.5 347.1 0 347.1 17.2"/></g><g id="top-right-3"><polygon class="cls-2" points="347.1 205.3 270.9 154.1 202.5 154.1 202.5 160.6 308.6 231.5 347.1 231.5 347.1 205.3"/><polygon class="cls-1" points="347.1 214.4 257.1 154.1 231.7 154.1 347.1 231.5 347.1 214.4"/></g><g id="top-right-4"><polygon class="cls-2" points="0 205.3 76.2 154.1 144.6 154.1 144.6 160.6 38.5 231.5 0 231.5 0 205.3"/><polygon class="cls-1" points="0 214.4 89.9 154.1 115.4 154.1 0 231.5 0 214.4"/></g></g></g></g></svg>