<?xml version="1.0" encoding="utf-8"?>
<!-- Generator: Adobe Illustrator 23.0.1, SVG Export Plug-In . SVG Version: 6.00 Build 0)  -->
<svg version="1.1" id="uk_1_" xmlns="http://www.w3.org/2000/svg" xmlns:xlink="http://www.w3.org/1999/xlink" x="0px" y="0px"
	 viewBox="0 0 350.9 231.5" style="enable-background:new 0 0 350.9 231.5;" xml:space="preserve">
<style type="text/css">
	.st0{fill:#CE202D;}
	.st1{fill:#FFFFFF;}
	.st2{fill:#2A3376;}
</style>
<title>Asset 9</title>
<g>
	<g id="Layer_1-2">
		<g id="uk">
			<rect class="st0" width="347.2" height="231.4"/>
			<rect class="st1" width="156.8" height="94.2"/>
			<rect x="190.3" class="st1" width="156.8" height="94.2"/>
			<rect x="190.3" y="138.8" class="st1" width="156.8" height="92.7"/>
			<rect y="138.8" class="st1" width="156.8" height="92.7"/>
			<rect class="st2" width="144.6" height="77.4"/>
			<rect x="202.5" class="st2" width="148.4" height="77.4"/>
			<rect x="202.5" y="154.1" class="st2" width="144.6" height="77.4"/>
			<rect y="154.1" class="st2" width="144.6" height="77.4"/>
			<g id="top-left-2">
				<polygon class="st1" points="0,26.3 76.2,77.5 144.6,77.5 144.6,70.9 38.5,0 0,0 				"/>
				<polygon class="st0" points="0,17.2 89.9,77.5 115.4,77.5 0,0 				"/>
			</g>
			<g id="top-right-2">
				<polygon class="st1" points="347.1,26.3 270.9,77.5 202.5,77.5 202.5,70.9 308.6,0 347.1,0 				"/>
				<polygon class="st0" points="347.1,17.2 257.1,77.5 231.7,77.5 347.1,0 				"/>
			</g>
			<g id="top-right-3">
				<polygon class="st1" points="347.1,205.3 270.9,154.1 202.5,154.1 202.5,160.6 308.6,231.5 347.1,231.5 				"/>
				<polygon class="st0" points="347.1,214.4 257.1,154.1 231.7,154.1 347.1,231.5 				"/>
			</g>
			<g id="top-right-4">
				<polygon class="st1" points="0,205.3 76.2,154.1 144.6,154.1 144.6,160.6 38.5,231.5 0,231.5 				"/>
				<polygon class="st0" points="0,214.4 89.9,154.1 115.4,154.1 0,231.5 				"/>
			</g>
		</g>
	</g>
</g>
</svg>
