<svg xmlns="http://www.w3.org/2000/svg" viewBox="0 0 280.5 187"><defs><style>.cls-1{fill:#fff;}.cls-2{fill:#cf2a3a;}.cls-3{fill:#124c9b;}</style></defs><title>Asset 8</title><g id="Layer_2" data-name="Layer 2"><g id="Layer_1-2" data-name="Layer 1"><g id="korea"><rect class="cls-1" width="280.5" height="187"/><g id="flag"><circle class="cls-2" cx="141.1" cy="93.4" r="47.3"/><path class="cls-3" d="M100.2,69.7s-7.4,20,6.3,29.1,27.3,3.1,32.6-4,16.4-16,29.4-10.2,15.5,17.7,14.8,28.6-29.7,37.9-61.2,23.7C91.3,122.9,88.8,89,100.2,69.7Z"/><g id="bottom-left"><rect x="58.05" y="119.89" width="7.8" height="20.7" transform="translate(-62.21 56.87) rotate(-33.98)"/><rect x="74.75" y="111.15" width="7.8" height="45.9" transform="translate(-61.52 66.86) rotate(-33.98)"/><rect x="54.83" y="124.6" width="7.8" height="45.9" transform="translate(-72.44 58.03) rotate(-33.98)"/><rect x="72.06" y="140.84" width="7.8" height="20.7" transform="translate(-71.53 68.27) rotate(-33.98)"/></g><g id="bottom-right"><rect x="208.49" y="126.41" width="20.7" height="7.8" transform="translate(-10.54 241.03) rotate(-56.54)"/><rect x="218.32" y="132.94" width="20.7" height="7.8" transform="translate(-11.57 252.16) rotate(-56.54)"/><rect x="197.8" y="119.91" width="21.3" height="7.8" transform="translate(-9.77 229.44) rotate(-56.54)"/><rect x="194.54" y="147.45" width="20.7" height="7.8" transform="translate(-34.34 238.83) rotate(-56.54)"/><rect x="204.44" y="153.92" width="20.7" height="7.8" transform="translate(-35.3 249.99) rotate(-56.54)"/><rect x="184.33" y="140.61" width="20.7" height="7.8" transform="translate(-33.21 227.25) rotate(-56.54)"/></g><g id="top-right"><rect x="210.99" y="18.54" width="7.8" height="20.7" transform="translate(20.67 125.28) rotate(-34.05)"/><rect x="191.21" y="32.05" width="7.8" height="21.3" transform="translate(9.54 116.57) rotate(-34.05)"/><rect x="208.18" y="23.05" width="7.8" height="45.9" transform="translate(10.61 126.64) rotate(-34.05)"/><rect x="225.08" y="39.44" width="7.8" height="20.7" transform="translate(11.38 136.75) rotate(-34.05)"/><rect x="205.13" y="53.03" width="7.8" height="20.7" transform="translate(0.35 127.91) rotate(-34.05)"/></g><g id="top-left"><rect x="45.55" y="42.29" width="45.9" height="7.8" transform="translate(-8.18 76.95) rotate(-55.85)"/><rect x="60.23" y="47.39" width="46" height="7.8" transform="translate(-5.84 91.6) rotate(-55.99)"/><rect x="35.32" y="35.41" width="45.9" height="7.8" transform="translate(-6.97 65.47) rotate(-55.85)"/></g></g></g></g></g></svg>