<?xml version="1.0" encoding="utf-8"?>
<!-- Generator: Adobe Illustrator 23.0.1, SVG Export Plug-In . SVG Version: 6.00 Build 0)  -->
<svg version="1.1" id="mc" xmlns="http://www.w3.org/2000/svg" xmlns:xlink="http://www.w3.org/1999/xlink" x="0px" y="0px"
	 viewBox="0 0 279.7 186.5" style="enable-background:new 0 0 279.7 186.5;" xml:space="preserve">
<style type="text/css">
	.st0{fill:#00785E;}
	.st1{fill:#FBD116;}
	.st2{fill:#FFFFFF;}
</style>
<title>Asset 1</title>
<g>
	<g id="Layer_1-2">
		<g id="macau">
			<rect class="st0" width="279.7" height="186.5"/>
			<polygon class="st1" points="139.9,35.2 133.8,53.7 149.6,42.3 130.1,42.3 145.9,53.7 			"/>
			<g id="h">
				<path class="st2" d="M139.9,128.9h-39.8l-1.5-1.5h41.3c0.3,0.1,0.5,0.4,0.6,0.7C140.4,128.4,140.2,128.7,139.9,128.9z
					 M139.9,116.7c0.4-0.9,0.6-1.9,0.5-2.9c-0.1-0.5-0.2-1-0.5-1.5c-3.6,3.4-7.9,5.9-12.6,7.4c-2.9,0.9-6,1.4-9.1,1.3H93.7
					c0.7,1.1,1.5,2.1,2.3,3.1h23.7C127.1,124.1,134.2,121.5,139.9,116.7z M97.3,107.1c-1.2,0.5-2.5,0.7-3.8,0.8
					c11.5,13.1,31.4,14.3,44.5,2.8c0,0,0,0,0,0c0.7-0.6,1.3-1.2,1.9-1.8c2.4-16.3,2.4-32.9,0-49.2c-4.5,4-7.8,9.1-9.6,14.8
					c-2.7,9-1.2,18.7,4,26.5c-7.2-9.4-8.6-22-3.6-32.7c-1.4-1.4-2.4-3.1-2.9-5c-6.1,10.8-5.3,24.2,2.1,34.2
					c-7-7.3-16.7-11.5-26.8-11.5h-1.7c1.1,1,2,2.2,2.6,3.5c10.1,0,19.7,4.1,26.7,11.4c-10.6-8.9-25.2-11.1-38-5.8
					c4.6,12.3,16.4,20.4,29.5,20.4c0.9,0,1.7,0,2.6-0.1c-1.8,0.3-3.7,0.5-5.6,0.5C111,116,103.1,112.8,97.3,107.1z M139.9,141.6
					h-20.6c6.6,2.6,13.5,3.9,20.6,3.9C140.5,144.3,140.5,142.8,139.9,141.6L139.9,141.6z M139.9,132.1h-36.4c1,0.8,2,1.7,3,2.4h33.3
					c0.3-0.3,0.5-0.8,0.5-1.2C140.3,132.9,140.2,132.5,139.9,132.1z M139.9,136.9h-29.8c1.8,1.1,3.7,2.2,5.6,3.1h24.2
					c0.3-0.5,0.5-1,0.4-1.6C140.3,137.9,140.1,137.4,139.9,136.9L139.9,136.9z"/>
				<polygon class="st1" points="100.7,63.9 95,76.1 106.8,69.6 93.4,67.9 103.3,77.1 				"/>
				<polygon class="st1" points="110.5,47.6 114.4,60.5 118.8,47.8 107.8,55.5 121.2,55.7 				"/>
			</g>
			<path class="st2" d="M139.9,128.9h39.8l1.5-1.5h-41.3c-0.3,0.1-0.5,0.4-0.6,0.7C139.3,128.5,139.6,128.8,139.9,128.9z
				 M139.9,116.7c-0.5-0.9-0.6-1.9-0.5-2.9c0.1-0.5,0.2-1,0.5-1.5c3.6,3.4,7.9,5.9,12.6,7.4c2.9,0.9,6,1.4,9.1,1.3h24.5
				c-0.7,1.1-1.5,2.1-2.3,3.1h-23.7C152.7,124.1,145.5,121.5,139.9,116.7z M182.4,107.1c1.2,0.5,2.5,0.7,3.8,0.8
				c-11.4,13-31.3,14.3-44.3,2.9c0,0-0.1-0.1-0.1-0.1c-0.7-0.6-1.3-1.2-1.9-1.8c-2.4-16.3-2.4-32.9,0-49.2c4.5,4,7.8,9.1,9.6,14.9
				c2.7,9,1.2,18.7-4,26.5c7.2-9.4,8.6-22,3.6-32.7c1.3-1.4,2.3-3.1,2.9-5c6.1,10.8,5.3,24.2-2.1,34.2c7-7.3,16.7-11.5,26.8-11.5
				h1.7c-1.1,1-2,2.2-2.6,3.5c-10.1,0-19.7,4.1-26.7,11.4c10.6-8.9,25.2-11.1,38-5.8c-4.6,12.3-16.4,20.4-29.5,20.4
				c-0.9,0-1.7,0-2.6-0.1c1.8,0.3,3.7,0.5,5.6,0.5C168.7,116,176.6,112.8,182.4,107.1L182.4,107.1z M139.9,141.6h20.6
				c-6.6,2.6-13.5,3.9-20.6,3.9C139.2,144.3,139.2,142.8,139.9,141.6z M139.9,132.1h36.4c-1,0.8-2,1.7-3,2.4H140
				c-0.3-0.3-0.5-0.8-0.5-1.2C139.4,132.9,139.5,132.4,139.9,132.1z M139.9,136.9h29.8c-1.8,1.1-3.7,2.2-5.6,3.1h-24.2
				c-0.3-0.5-0.5-1-0.4-1.6C139.4,137.9,139.6,137.3,139.9,136.9L139.9,136.9z"/>
			<polygon class="st1" points="179,63.9 184.7,76.1 172.9,69.6 186.3,67.9 176.4,77.1 			"/>
			<polygon class="st1" points="169.2,47.6 165.3,60.5 160.9,47.8 172,55.5 158.5,55.7 			"/>
		</g>
	</g>
</g>
</svg>
