<svg xmlns="http://www.w3.org/2000/svg" viewBox="0 0 279.7 186.5"><defs><style>.cls-1{fill:#00785e;}.cls-2{fill:#fbd116;}.cls-3{fill:#fff;}</style></defs><title>Asset 1</title><g id="Layer_2" data-name="Layer 2"><g id="Layer_1-2" data-name="Layer 1"><g id="macau"><rect class="cls-1" width="279.7" height="186.5"/><polygon class="cls-2" points="139.9 35.2 133.8 53.7 149.6 42.3 130.1 42.3 145.9 53.7 139.9 35.2"/><g id="h"><path class="cls-3" d="M139.9,128.9H100.1l-1.5-1.5h41.3a1.06,1.06,0,0,1,.6.7A1.56,1.56,0,0,1,139.9,128.9Zm0-12.2a5.76,5.76,0,0,0,.5-2.9,4.42,4.42,0,0,0-.5-1.5,32.83,32.83,0,0,1-12.6,7.4,28.24,28.24,0,0,1-9.1,1.3H93.7a35.53,35.53,0,0,0,2.3,3.1h23.7A31.45,31.45,0,0,0,139.9,116.7Zm-42.6-9.6a12.28,12.28,0,0,1-3.8.8,31.5,31.5,0,0,0,44.5,2.8c.7-.6,1.3-1.2,1.9-1.8a169,169,0,0,0,0-49.2,33.11,33.11,0,0,0-9.6,14.8,31.46,31.46,0,0,0,4,26.5,31.7,31.7,0,0,1-3.6-32.7,11,11,0,0,1-2.9-5,31.47,31.47,0,0,0,2.1,34.2A37.23,37.23,0,0,0,103.1,86h-1.7a11,11,0,0,1,2.6,3.5,36.91,36.91,0,0,1,26.7,11.4,37,37,0,0,0-38-5.8,31.48,31.48,0,0,0,29.5,20.4,22.6,22.6,0,0,0,2.6-.1,34.3,34.3,0,0,1-5.6.5,30.76,30.76,0,0,1-21.9-8.8Zm42.6,34.5H119.3a56.23,56.23,0,0,0,20.6,3.9,4.45,4.45,0,0,0,0-3.9Zm0-9.5H103.5c1,.8,2,1.7,3,2.4h33.3a1.85,1.85,0,0,0,.5-1.2A2.14,2.14,0,0,0,139.9,132.1Zm0,4.8H110.1a61.17,61.17,0,0,0,5.6,3.1h24.2a2.4,2.4,0,0,0,.4-1.6A4.19,4.19,0,0,0,139.9,136.9Z"/><polygon class="cls-2" points="100.7 63.9 95 76.1 106.8 69.6 93.4 67.9 103.3 77.1 100.7 63.9"/><polygon class="cls-2" points="110.5 47.6 114.4 60.5 118.8 47.8 107.8 55.5 121.2 55.7 110.5 47.6"/></g><path class="cls-3" d="M139.9,128.9h39.8l1.5-1.5H139.9a1.06,1.06,0,0,0-.6.7A.94.94,0,0,0,139.9,128.9Zm0-12.2a4.86,4.86,0,0,1-.5-2.9,4.42,4.42,0,0,1,.5-1.5,32.83,32.83,0,0,0,12.6,7.4,28.24,28.24,0,0,0,9.1,1.3h24.5a35.53,35.53,0,0,1-2.3,3.1H160.1A31.05,31.05,0,0,1,139.9,116.7Zm42.5-9.6a12.28,12.28,0,0,0,3.8.8,31.39,31.39,0,0,1-44.4,2.8c-.7-.6-1.3-1.2-1.9-1.8a169,169,0,0,1,0-49.2,32.88,32.88,0,0,1,9.6,14.9,31.46,31.46,0,0,1-4,26.5,31.7,31.7,0,0,0,3.6-32.7,13.16,13.16,0,0,0,2.9-5,31.47,31.47,0,0,1-2.1,34.2,37.23,37.23,0,0,1,26.8-11.5h1.7a11,11,0,0,0-2.6,3.5A36.91,36.91,0,0,0,149.1,101a37,37,0,0,1,38-5.8,31.48,31.48,0,0,1-29.5,20.4,22.6,22.6,0,0,1-2.6-.1,34.3,34.3,0,0,0,5.6.5,31.22,31.22,0,0,0,21.8-8.9Zm-42.5,34.5h20.6a56.23,56.23,0,0,1-20.6,3.9A3.88,3.88,0,0,1,139.9,141.6Zm0-9.5h36.4c-1,.8-2,1.7-3,2.4H140a1.85,1.85,0,0,1-.5-1.2A1.09,1.09,0,0,1,139.9,132.1Zm0,4.8h29.8a61.17,61.17,0,0,1-5.6,3.1H139.9a2.4,2.4,0,0,1-.4-1.6A2.15,2.15,0,0,1,139.9,136.9Z"/><polygon class="cls-2" points="179 63.9 184.7 76.1 172.9 69.6 186.3 67.9 176.4 77.1 179 63.9"/><polygon class="cls-2" points="169.2 47.6 165.3 60.5 160.9 47.8 172 55.5 158.5 55.7 169.2 47.6"/></g></g></g></svg>