<svg xmlns="http://www.w3.org/2000/svg" viewBox="0 0 278.27 81.73">
<defs><style>.cls-1{fill:#f7e600;stroke:#000;stroke-miterlimit:10;stroke-width:0.5px;}</style></defs>
<title>Asset 1</title>
<g id="Layer_2" data-name="Layer 2">
<g id="Layer_1-2" data-name="Layer 1">
<g id="_3_stars" data-name=" 3 stars">
<polygon class="cls-1" points="67.63 81.27 41.93 66.97 15.53 80.17 21.13 51.27 0.53 30.27 29.73 26.66 43.33 0.56 55.73 27.16 84.73 32.06 63.23 52.16 67.63 81.27"/><polygon class="cls-1" points="163.43 81.27 137.63 66.97 111.33 80.17 116.93 51.27 96.33 30.27 125.53 26.66 139.03 0.56 151.53 27.16 180.53 32.06 159.03 52.16 163.43 81.27"/><polygon class="cls-1" points="260.63 81.27 234.83 66.97 208.53 80.17 214.13 51.27 193.53 30.27 222.73 26.66 236.33 0.56 248.73 27.16 277.73 32.06 256.23 52.16 260.63 81.27"/>
<path d="M34.93,35.16v-4.7l4.9-3.2h5v31h-5V32Z"/></g></g></g></svg>