<?xml version="1.0" encoding="utf-8"?>
<!-- Generator: Adobe Illustrator 23.0.1, SVG Export Plug-In . SVG Version: 6.00 Build 0)  -->
<svg version="1.1" id="Layer_1" xmlns="http://www.w3.org/2000/svg" xmlns:xlink="http://www.w3.org/1999/xlink" x="0px" y="0px"
	 viewBox="0 0 374 152" style="enable-background:new 0 0 374 152;" xml:space="preserve">
<style type="text/css">
	.st0{fill:#F7E600;stroke:#000000;stroke-width:0.5;stroke-miterlimit:10;}
</style>
<title>Asset 1</title>
<g>
	<g id="Layer_1-2">
		<g id="_3_stars">
			<polygon class="st0" points="94.4,144 60.1,119.4 24.9,142.1 32.5,92.4 5,56.1 43.9,49.8 62,5 78.6,50.8 117.1,59.2 88.5,93.9 
							"/>
			<polygon class="st0" points="221.9,144 187.5,119.4 152.4,142.1 160,92.4 132.5,56.1 171.4,49.8 189.5,5 206.1,50.8 244.6,59.2 
				216.1,93.9 			"/>
			<polygon class="st0" points="351.2,144 317,119.4 281.9,142.1 289.4,92.4 261.9,56.1 300.8,49.8 318.9,5 335.3,50.8 374,59.2 
				345.3,93.9 			"/>
			<path d="M50.8,64.7v-8.2l6.5-5.6H64v53.5h-6.6V59.2L50.8,64.7z"/>
		</g>
	</g>
</g>
<title>Asset 1</title>
<title>Asset 1</title>
<title>Asset 1</title>
</svg>
