<svg xmlns="http://www.w3.org/2000/svg" viewBox="0 0 181.07 81.73"><defs><style>.cls-1{fill:#f7e600;stroke:#000;stroke-miterlimit:10;stroke-width:0.5px;}</style></defs><title>Asset 4</title><g id="Layer_2" data-name="Layer 2"><g id="Layer_1-2" data-name="Layer 1"><polygon class="cls-1" points="67.63 81.27 41.83 67.07 15.53 80.17 21.13 51.27 0.53 30.27 29.73 26.67 43.33 0.57 55.73 27.27 84.73 32.07 63.23 52.17 67.63 81.27"/><polygon class="cls-1" points="163.43 81.27 137.63 67.07 111.33 80.17 116.93 51.27 96.33 30.27 125.53 26.67 139.03 0.57 151.53 27.27 180.53 32.07 159.03 52.17 163.43 81.27"/><path d="M31,50.17a37.62,37.62,0,0,0,5.5-2.3,25.62,25.62,0,0,0,4.8-3.3,14.54,14.54,0,0,0,3.3-4.5,12.27,12.27,0,0,0,1.2-5.9,10.07,10.07,0,0,0-.3-2.5,1.2,1.2,0,0,0-1.2-.9,2.1,2.1,0,0,0-1.4.7,8.06,8.06,0,0,0-1.2,1.8,11.72,11.72,0,0,0-.9,2.4,25,25,0,0,0-.7,2.6h-7.4l1.3-6.2a20.69,20.69,0,0,1,4.8-3.1,16,16,0,0,1,5.7-1.1,15,15,0,0,1,3.7.4,10.32,10.32,0,0,1,3,1.4,6.89,6.89,0,0,1,2.1,2.4,8.53,8.53,0,0,1,.8,3.5,10.47,10.47,0,0,1-.5,3,10.88,10.88,0,0,1-1.8,3.1,22,22,0,0,1-3.5,3.3,54.24,54.24,0,0,1-5.6,3.7h9.1l-.8,5.7H29.93Z"/></g></g></svg>