<svg xmlns="http://www.w3.org/2000/svg" viewBox="0 0 85.27 81.73"><defs><style>.cls-1{fill:#f7e600;stroke:#000;stroke-miterlimit:10;stroke-width:0.5px;}</style></defs><title>Asset 2</title><g id="Layer_2" data-name="Layer 2"><g id="Layer_1-2" data-name="Layer 1"><g id="Layer_20" data-name="Layer 20"><polygon class="cls-1" points="67.63 81.27 41.83 67.07 15.53 80.17 21.13 51.27 0.53 30.27 29.73 26.67 43.33 0.57 55.73 27.27 84.73 32.07 63.23 52.17 67.63 81.27"/><path d="M37.43,63.47a23.52,23.52,0,0,1-6.9-1,16.24,16.24,0,0,1-5.7-3.6l1.8-8.3h9.3a1.58,1.58,0,0,1-.1.4c-.1.3-.1.7-.2,1.1s-.1,1-.2,1.6a10.28,10.28,0,0,0-.1,1.7,5.92,5.92,0,0,0,.6,3.2,1.78,1.78,0,0,0,1.6,1,3.49,3.49,0,0,0,2.2-.8,6.14,6.14,0,0,0,1.7-1.9,8.49,8.49,0,0,0,1.1-2.6,8.42,8.42,0,0,0,.4-2.7,5.35,5.35,0,0,0-1.3-3.8,4.14,4.14,0,0,0-3.2-1.2,10.62,10.62,0,0,1,.4-1.9,11.15,11.15,0,0,0,.3-1.3,2.8,2.8,0,0,0,.1-.6,8.53,8.53,0,0,0,3.1-.6,5.26,5.26,0,0,0,2-1.6,6.59,6.59,0,0,0,1.1-2.4,15.26,15.26,0,0,0,.3-3,5.28,5.28,0,0,0-.1-1.3c-.1-.4-.2-.9-.3-1.3a1.46,1.46,0,0,0-.6-.9,1.5,1.5,0,0,0-1.1-.4,4,4,0,0,0-2.9,1.8,16.65,16.65,0,0,0-2.5,6h-9.5l1.7-7.8a27,27,0,0,1,3.8-1.9,31.91,31.91,0,0,1,4.4-1.3,26.9,26.9,0,0,1,10.2-.2,10.58,10.58,0,0,1,3.9,1.3,8.42,8.42,0,0,1,2.8,2.5,7.22,7.22,0,0,1,1.1,4.1,9.6,9.6,0,0,1-.6,3.3,7.63,7.63,0,0,1-1.8,2.5,11.54,11.54,0,0,1-2.9,2,25.44,25.44,0,0,1-3.8,1.6,11.56,11.56,0,0,1,3.1.7,7.68,7.68,0,0,1,2.5,1.4,6.4,6.4,0,0,1,2.3,5.2,7.58,7.58,0,0,1-1.3,4.4,11,11,0,0,1-3.6,3.5,16.68,16.68,0,0,1-5.7,2.3A30.52,30.52,0,0,1,37.43,63.47Z"/></g></g></g></svg>