<?xml version="1.0" encoding="utf-8"?>
<!-- Generator: Adobe Illustrator 23.0.1, SVG Export Plug-In . SVG Version: 6.00 Build 0)  -->
<svg version="1.1" id="tw" xmlns="http://www.w3.org/2000/svg" xmlns:xlink="http://www.w3.org/1999/xlink" x="0px" y="0px"
	 viewBox="0 0 180 129.6" style="enable-background:new 0 0 180 129.6;" xml:space="preserve">
<style type="text/css">
	.st0{fill:#EC1E24;}
	.st1{fill:#2B2F83;}
	.st2{fill:#FFFFFF;}
</style>
<title>Asset 4</title>
<g>
	<g id="Layer_1-2">
		<g id="taiwan">
			<rect id="_15" class="st0" width="180" height="129.6"/>
			<rect id="_14" class="st1" width="90" height="64.8"/>
			<path id="_13" class="st2" d="M45,44.5c6.2,0,11.2-5.4,11.2-12.1s-5-12.1-11.2-12.1s-11.2,5.4-11.2,12.1S38.8,44.5,45,44.5z"/>
			<path id="_12" class="st2" d="M47.6,18.7L45,8.1l-2.6,10.6C44.1,18.4,45.9,18.4,47.6,18.7z"/>
			<path id="_11" class="st2" d="M41,19.2l-7.2-7.8L36.4,22C37.7,20.7,39.3,19.8,41,19.2z"/>
			<path id="_10" class="st2" d="M35.4,23.1l-9.8-2.8l7.2,7.8C33.3,26.3,34.2,24.6,35.4,23.1z"/>
			<path id="_9" class="st2" d="M32.4,29.5l-9.8,2.8l9.8,2.8C32,33.3,32,31.3,32.4,29.5z"/>
			<path id="_8" class="st2" d="M32.8,36.7l-7.2,7.8l9.8-2.8C34.2,40.2,33.3,38.5,32.8,36.7z"/>
			<path id="_7" class="st2" d="M36.4,42.8l-2.6,10.6l7.2-7.8C39.3,45,37.7,44,36.4,42.8z"/>
			<path id="_6" class="st2" d="M42.4,46L45,56.6L47.6,46C45.9,46.4,44.1,46.4,42.4,46z"/>
			<path id="_5" class="st2" d="M49.1,45.6l7.2,7.8l-2.6-10.6C52.4,44,50.8,45,49.1,45.6z"/>
			<path id="_4" class="st2" d="M54.6,41.7l9.8,2.8l-7.2-7.8C56.7,38.5,55.8,40.2,54.6,41.7z"/>
			<path id="_3" class="st2" d="M57.6,35.2l9.8-2.8l-9.8-2.8C58,31.4,58,33.4,57.6,35.2z"/>
			<path id="_2" class="st2" d="M57.3,28l7.2-7.8L54.7,23C55.8,24.5,56.7,26.2,57.3,28z"/>
			<path id="_1" class="st2" d="M53.6,22l2.6-10.6L49,19.2C50.7,19.8,52.3,20.7,53.6,22z"/>
		</g>
	</g>
</g>
</svg>
