<svg xmlns="http://www.w3.org/2000/svg" viewBox="0 0 180 129.6"><defs><style>.cls-1{fill:#ec1e24;}.cls-2{fill:#2b2f83;}.cls-3{fill:#fff;}</style></defs><title>Asset 4</title><g id="Layer_2" data-name="Layer 2"><g id="Layer_1-2" data-name="Layer 1"><g id="taiwan"><rect id="_15" data-name=" 15" class="cls-1" width="180" height="129.6"/><rect id="_14" data-name=" 14" class="cls-2" width="90" height="64.8"/><path id="_13" data-name=" 13" class="cls-3" d="M45,44.5c6.2,0,11.2-5.4,11.2-12.1S51.2,20.3,45,20.3,33.8,25.7,33.8,32.4,38.8,44.5,45,44.5Z"/><path id="_12" data-name=" 12" class="cls-3" d="M47.6,18.7,45,8.1,42.4,18.7A15.13,15.13,0,0,1,47.6,18.7Z"/><path id="_11" data-name=" 11" class="cls-3" d="M41,19.2l-7.2-7.8L36.4,22A12.15,12.15,0,0,1,41,19.2Z"/><path id="_10" data-name=" 10" class="cls-3" d="M35.4,23.1l-9.8-2.8,7.2,7.8A13.29,13.29,0,0,1,35.4,23.1Z"/><path id="_9" data-name=" 9" class="cls-3" d="M32.4,29.5l-9.8,2.8,9.8,2.8A13.21,13.21,0,0,1,32.4,29.5Z"/><path id="_8" data-name=" 8" class="cls-3" d="M32.8,36.7l-7.2,7.8,9.8-2.8A14.08,14.08,0,0,1,32.8,36.7Z"/><path id="_7" data-name=" 7" class="cls-3" d="M36.4,42.8,33.8,53.4,41,45.6A13.55,13.55,0,0,1,36.4,42.8Z"/><path id="_6" data-name=" 6" class="cls-3" d="M42.4,46,45,56.6,47.6,46A11.42,11.42,0,0,1,42.4,46Z"/><path id="_5" data-name=" 5" class="cls-3" d="M49.1,45.6l7.2,7.8L53.7,42.8A14.58,14.58,0,0,1,49.1,45.6Z"/><path id="_4" data-name=" 4" class="cls-3" d="M54.6,41.7l9.8,2.8-7.2-7.8A14.08,14.08,0,0,1,54.6,41.7Z"/><path id="_3" data-name=" 3" class="cls-3" d="M57.6,35.2l9.8-2.8-9.8-2.8A13.21,13.21,0,0,1,57.6,35.2Z"/><path id="_2" data-name=" 2" class="cls-3" d="M57.3,28l7.2-7.8L54.7,23A19.86,19.86,0,0,1,57.3,28Z"/><path id="_1" data-name=" 1" class="cls-3" d="M53.6,22l2.6-10.6L49,19.2A11.43,11.43,0,0,1,53.6,22Z"/></g></g></g></svg>